<?xml version="1.0" standalone="no"?><!DOCTYPE svg PUBLIC "-//W3C//DTD SVG 1.1//EN" "http://www.w3.org/Graphics/SVG/1.1/DTD/svg11.dtd"><svg t="1593534250129" class="icon" viewBox="0 0 1024 1024" version="1.1" xmlns="http://www.w3.org/2000/svg" p-id="15512" xmlns:xlink="http://www.w3.org/1999/xlink" width="64" height="64"><defs><style type="text/css"></style></defs><path d="M512 0C230.4 0 0 230.4 0 512s230.4 512 512 512 512-230.4 512-512S793.6 0 512 0z m170.666667 537.6l-234.666667 221.866667c-12.8 12.8-38.4 12.8-51.2 0-12.8-12.8-12.8-38.4 0-51.2l209.066667-196.266667-209.066667-196.266667c-12.8-12.8-17.066667-34.133333 0-51.2 12.8-12.8 38.4-17.066667 51.2 0l234.666667 221.866667c8.533333 8.533333 12.8 17.066667 12.8 25.6s-8.533333 17.066667-12.8 25.6z" p-id="15513" fill="#d81e06"></path></svg>