<?xml version="1.0" standalone="no"?><!DOCTYPE svg PUBLIC "-//W3C//DTD SVG 1.1//EN" "http://www.w3.org/Graphics/SVG/1.1/DTD/svg11.dtd"><svg t="1591277794590" class="icon" viewBox="0 0 1024 1024" version="1.1" xmlns="http://www.w3.org/2000/svg" p-id="32711" xmlns:xlink="http://www.w3.org/1999/xlink" width="32" height="32"><defs><style type="text/css"></style></defs><path d="M16 512c0 274 222 496 496 496s496-222 496-496S786 16 512 16 16 238 16 512z m896 0c0 221-179 400-400 400S112 733 112 512 291 112 512 112s400 179 400 400zM533.8 252.2l242.8 242.8c9.4 9.4 9.4 24.6 0 34L533.8 771.8c-9.4 9.4-24.6 9.4-34 0l-39.2-39.2c-9.6-9.6-9.4-25 0.4-34.4l140.6-134.2H280c-13.2 0-24-10.8-24-24v-56c0-13.2 10.8-24 24-24h321.6l-140.6-134.2c-9.8-9.4-10-24.8-0.4-34.4l39.2-39.2c9.4-9.4 24.6-9.4 34 0z" p-id="32712"></path></svg>