<?xml version="1.0" standalone="no"?><!DOCTYPE svg PUBLIC "-//W3C//DTD SVG 1.1//EN" "http://www.w3.org/Graphics/SVG/1.1/DTD/svg11.dtd"><svg t="1591717120958" class="icon" viewBox="0 0 1024 1024" version="1.1" xmlns="http://www.w3.org/2000/svg" p-id="8211" xmlns:xlink="http://www.w3.org/1999/xlink" width="32" height="32"><defs><style type="text/css"></style></defs><path d="M607.936 448h128a32 32 0 0 0 0-64h-128a32 32 0 0 0 0 64z m224-320h-448a64 64 0 0 0-64 64v512a64 64 0 0 0 64 64h448a64 64 0 0 0 64-64V192a64 64 0 0 0-64-64z m0 576h-448V192h448v512z m-32 128h-544V288a31.488 31.488 0 0 0-16.192-27.2L115.968 137.024a30.336 30.336 0 1 0-43.008 43.008l118.976 118.976V832a64 64 0 1 0 64 64h544a32 32 0 0 0 0-64z m-256-256h192a32 32 0 0 0 0-64h-192a32 32 0 0 0 0 64z" p-id="8212"></path></svg>