<?xml version="1.0" standalone="no"?><!DOCTYPE svg PUBLIC "-//W3C//DTD SVG 1.1//EN" "http://www.w3.org/Graphics/SVG/1.1/DTD/svg11.dtd"><svg t="1590517591788" class="icon" viewBox="0 0 1024 1024" version="1.1" xmlns="http://www.w3.org/2000/svg" p-id="11937" width="16" height="16" xmlns:xlink="http://www.w3.org/1999/xlink"><defs><style type="text/css"></style></defs><path d="M195.490909 930.909091c0 37.236364 27.927273 65.163636 65.163636 65.163636s65.163636-27.927273 65.163637-65.163636c0-37.236364-27.927273-65.163636-65.163637-65.163636s-65.163636 27.927273-65.163636 65.163636zM754.036364 930.909091c0 37.236364 27.927273 65.163636 65.163636 65.163636 37.236364 0 65.163636-27.927273 65.163636-65.163636 0-37.236364-27.927273-65.163636-65.163636-65.163636-32.581818 0-65.163636 27.927273-65.163636 65.163636zM991.418182 209.454545c-4.654545-9.309091-13.963636-13.963636-27.927273-13.963636H190.836364L176.872727 37.236364C172.218182 13.963636 153.6 0 139.636364 0H23.272727v74.472727h83.781818l74.472728 702.836364c0 18.618182 18.618182 37.236364 32.581818 37.236364h674.909091c18.618182 0 32.581818-13.963636 32.581818-32.581819L1000.727273 242.036364c0-9.309091 0-23.272727-9.309091-32.581819z m-139.636364 525.963637H242.036364l-46.545455-465.454546h726.109091l-69.818182 465.454546z" fill="" p-id="11938"></path></svg>