<?xml version="1.0" standalone="no"?><!DOCTYPE svg PUBLIC "-//W3C//DTD SVG 1.1//EN" "http://www.w3.org/Graphics/SVG/1.1/DTD/svg11.dtd"><svg t="1590575228663" class="icon" viewBox="0 0 1024 1024" version="1.1" xmlns="http://www.w3.org/2000/svg" p-id="17289" width="16" height="16" xmlns:xlink="http://www.w3.org/1999/xlink"><defs><style type="text/css"></style></defs><path d="M986.76 35H37.22C18.61 35 0 48.96 0 72.24v712.15c0 18.62 18.61 37.24 37.23 37.24H214.1v134.98c0 13.96 9.32 27.93 18.62 32.58 4.65 4.66 9.31 4.66 13.96 4.66 9.31 0 18.62-4.66 23.27-9.31L470.1 821.63h516.66c18.62 0 37.24-18.62 37.24-37.24V72.24c0-23.28-18.62-37.24-37.24-37.24z m-32.58 712.15H460.79c-9.31 0-18.61 4.65-23.27 9.31l-153.6 121.02v-93.09c0-18.62-18.61-37.24-37.24-37.24H74.47V109.47h879.71v637.68z" p-id="17290"></path><path d="M228.06 286.35h567.87v74.47H228.06zM228.06 491.15h321.17v74.47H228.06z" p-id="17291"></path></svg>