<?xml version="1.0" standalone="no"?><!DOCTYPE svg PUBLIC "-//W3C//DTD SVG 1.1//EN" "http://www.w3.org/Graphics/SVG/1.1/DTD/svg11.dtd"><svg t="1591273615368" class="icon" viewBox="0 0 1024 1024" version="1.1" xmlns="http://www.w3.org/2000/svg" p-id="3443" width="32" height="32" xmlns:xlink="http://www.w3.org/1999/xlink"><defs><style type="text/css"></style></defs><path d="M864.028444 1023.431111H160.805926c-77.63437 0-140.553481-63.867259-140.553482-142.829037v-356.731259h70.352593V71.983407C90.605037 32.57837 122.121481 0.568889 160.95763 0.568889h703.070814c38.836148 0 70.352593 32.009481 70.352593 71.414518v451.887408h70.352593v356.882963c-0.113778 78.810074-63.070815 142.677333-140.705186 142.677333z m0-951.447704H160.805926v451.887408h210.906074v142.829037h281.296593v-142.829037h210.868148V71.983407h0.151703z m70.238815 523.301926h-210.906074v71.414519c0 39.367111-31.55437 71.376593-70.352592 71.376592H371.674074c-38.798222 0-70.352593-32.009481-70.352593-71.376592v-71.414519h-210.868148v285.468445c0 39.405037 31.478519 71.414519 70.314667 71.414518H863.952593c38.798222 0 70.352593-32.009481 70.352592-71.414518v-285.468445z" p-id="3444"></path><path d="M723.626667 259.565037H301.814519a35.346963 35.346963 0 0 1-35.119408-35.65037c0-19.721481 15.701333-35.65037 35.119408-35.650371H723.626667c19.418074 0 35.119407 15.928889 35.119407 35.650371 0.113778 19.721481-15.54963 35.65037-35.119407 35.65037z m-246.025482 166.684444H301.814519a35.346963 35.346963 0 0 1-35.119408-35.65037c0-19.683556 15.701333-35.612444 35.119408-35.612444h175.786666c19.418074 0 35.119407 15.928889 35.119408 35.65037s-15.701333 35.65037-35.119408 35.65037z" p-id="3445"></path></svg>