<svg t="1585251913230" class="icon" viewBox="0 0 1024 1024" version="1.1" xmlns="http://www.w3.org/2000/svg" p-id="10058" xmlns:xlink="http://www.w3.org/1999/xlink" width="128" height="128"><defs><style type="text/css"></style></defs><path d="M593.92 716.8h-163.84a122.88 122.88 0 1 1-245.76 0H143.36a81.92 81.92 0 0 1-81.92-81.92V266.24a81.92 81.92 0 0 1 81.92-81.92h471.04a81.92 81.92 0 0 1 81.92 81.92 40.96 40.96 0 0 0 40.96 40.96h68.46464a81.92 81.92 0 0 1 57.93792 24.00256l74.87488 74.87488A81.92 81.92 0 0 1 962.56 464.01536V634.88a81.92 81.92 0 0 1-81.92 81.92h-40.96a122.88 122.88 0 1 1-245.76 0z m-286.72 61.44a61.44 61.44 0 1 0 0-122.88 61.44 61.44 0 0 0 0 122.88z m409.6 0a61.44 61.44 0 1 0 0-122.88 61.44 61.44 0 0 0 0 122.88zM225.28 307.2a40.96 40.96 0 0 0-40.96 40.96v163.84a40.96 40.96 0 1 0 81.92 0v-163.84a40.96 40.96 0 0 0-40.96-40.96z m163.84 0a40.96 40.96 0 0 0-40.96 40.96v163.84a40.96 40.96 0 1 0 81.92 0v-163.84a40.96 40.96 0 0 0-40.96-40.96z m163.84 0a40.96 40.96 0 0 0-40.96 40.96v163.84a40.96 40.96 0 1 0 81.92 0v-163.84a40.96 40.96 0 0 0-40.96-40.96z" p-id="10059"></path></svg>