<?xml version="1.0" standalone="no"?><!DOCTYPE svg PUBLIC "-//W3C//DTD SVG 1.1//EN" "http://www.w3.org/Graphics/SVG/1.1/DTD/svg11.dtd"><svg t="1591125350034" class="icon" viewBox="0 0 1092 1024" version="1.1" xmlns="http://www.w3.org/2000/svg" p-id="14124" width="17.0625" height="16" xmlns:xlink="http://www.w3.org/1999/xlink"><defs><style type="text/css"></style></defs><path d="M1068.816725 307.2c-23.893333-27.306667-174.08-208.213333-232.106666-273.066667-17.066667-20.48-30.72-34.133333-58.026667-34.133333H314.470059c-13.653333 0-34.133333 3.413333-58.026667 34.133333C198.416725 102.4 68.710059 256 24.336725 307.2c-30.72 34.133333-34.133333 85.333333 0 136.533333 71.68 85.333333 266.24 314.026667 464.213334 546.133334 27.306667 34.133333 44.373333 34.133333 58.026666 34.133333 13.653333 0 30.72 0 58.026667-34.133333 194.56-228.693333 382.293333-447.146667 464.213333-546.133334 27.306667-34.133333 34.133333-95.573333 0-136.533333z m-204.8 102.4c-20.48 0-27.306667 3.413333-37.546666 17.066667 0 0 0 3.413333-3.413334 3.413333C778.683392 494.933333 597.776725 716.8 546.576725 785.066667c-51.2-68.266667-232.106667-293.546667-276.48-354.986667l-3.413333-3.413333c-6.826667-10.24-13.653333-17.066667-34.133333-17.066667h-3.413334v-47.786667h102.4c3.413333 0 3.413333 0 6.826667 3.413334l208.213333 273.066666 208.213334-273.066666c3.413333-3.413333 3.413333-3.413333 6.826666-3.413334h102.4V409.6z" p-id="14125"></path></svg>