<?xml version="1.0" standalone="no"?><!DOCTYPE svg PUBLIC "-//W3C//DTD SVG 1.1//EN" "http://www.w3.org/Graphics/SVG/1.1/DTD/svg11.dtd"><svg t="1591278070352" class="icon" viewBox="0 0 1024 1024" version="1.1" xmlns="http://www.w3.org/2000/svg" p-id="36995" xmlns:xlink="http://www.w3.org/1999/xlink" width="32" height="32"><defs><style type="text/css"></style></defs><path d="M957.44 864.256h-32.256V416.256c0-70.656-57.856-128-128-128h-192V224.256c0-70.656-57.344-128-128-128h-256c-70.656 0-128 57.856-128 128v640H61.44c-17.92 0-32.256 14.336-32.256 32.256s14.336 32.256 32.256 32.256h896c17.92 0 32.256-14.336 32.256-32.256s-14.336-32.256-32.256-32.256zM541.696 288.256v576h-384v-640c0-35.328 28.672-64 64-64h256c35.328 0 64 28.672 64 64v64z m320 576h-256v-512h192c35.328 0 64 28.672 64 64v448zM445.44 288.256H253.44c-17.92 0-32.256 13.824-32.256 32.256 0 17.92 14.336 32.256 32.256 32.256H445.44c17.92 0 32.256-14.336 32.256-32.256 0-18.432-14.336-32.256-32.256-32.256z m0 192H253.44c-17.92 0-32.256 14.336-32.256 32.256s14.336 32.256 32.256 32.256H445.44c17.92 0 32.256-14.336 32.256-32.256s-14.336-32.256-32.256-32.256z m0 192H253.44c-17.92 0-32.256 14.336-32.256 32.256s14.336 32.256 32.256 32.256H445.44c17.92 0 32.256-14.336 32.256-32.256s-14.336-32.256-32.256-32.256z m320-192H701.44c-17.92 0-32.256 14.336-32.256 32.256s14.336 32.256 32.256 32.256h64c17.92 0 32.256-14.336 32.256-32.256s-14.336-32.256-32.256-32.256z m0 192H701.44c-17.92 0-32.256 14.336-32.256 32.256s14.336 32.256 32.256 32.256h64c17.92 0 32.256-14.336 32.256-32.256s-14.336-32.256-32.256-32.256z" p-id="36996"></path></svg>