<?xml version="1.0" standalone="no"?><!DOCTYPE svg PUBLIC "-//W3C//DTD SVG 1.1//EN" "http://www.w3.org/Graphics/SVG/1.1/DTD/svg11.dtd"><svg t="1603519248270" class="icon" viewBox="0 0 1025 1024" version="1.1" xmlns="http://www.w3.org/2000/svg" p-id="23215" xmlns:xlink="http://www.w3.org/1999/xlink" width="16.015625" height="16"><defs><style type="text/css"></style></defs><path d="M455.111111 1024c-30.525745 0-58.276423-12.487805-80.476965-33.300813L33.300813 649.365854C12.487805 627.165312 0 599.414634 0 568.888889c0-30.525745 11.100271-58.276423 33.300813-80.476965 4.162602-2.775068 391.284553-389.897019 435.685637-435.685637C516.162602 6.937669 566.113821 0 613.289973 0h299.707317c30.525745 0 58.276423 11.100271 80.476965 33.300813C1012.899729 54.113821 1025.387534 83.252033 1025.387534 113.777778v291.382114c0 48.563686-6.937669 104.065041-52.726287 149.853658-23.588076 23.588076-432.910569 431.523035-437.073171 435.685637-20.813008 20.813008-49.95122 33.300813-80.476965 33.300813zM911.609756 55.501355H613.289973c-43.01355 0-73.539295 5.550136-104.065041 36.075881L72.151762 528.650407C61.051491 538.363144 55.501355 553.626016 55.501355 568.888889c0 15.262873 5.550136 30.525745 16.650407 40.238482l342.720867 341.333334c11.100271 11.100271 24.97561 16.650407 40.238482 16.650406 15.262873 0 30.525745-5.550136 40.238482-16.650406 4.162602-4.162602 413.485095-412.097561 437.073171-435.685637 30.525745-30.525745 36.075881-66.601626 36.075881-111.00271v-291.382114c0-15.262873-5.550136-30.525745-16.650407-40.238482-9.712737-11.100271-24.97561-16.650407-40.238482-16.650407zM738.168022 425.9729c-33.300813 0-65.214092-12.487805-87.414634-36.075881-23.588076-23.588076-36.075881-54.113821-36.075881-87.414634s12.487805-63.826558 36.075881-87.414634c23.588076-23.588076 55.501355-36.075881 87.414634-36.075881 33.300813 0 65.214092 12.487805 87.414634 36.075881 48.563686 48.563686 48.563686 127.653117 0 176.216802-22.200542 20.813008-54.113821 34.688347-87.414634 34.688347z m0-192.867209c-18.03794 0-36.075881 6.937669-48.563686 20.813008-12.487805 12.487805-20.813008 30.525745-20.813008 48.563686 0 18.03794 6.937669 36.075881 20.813008 48.563685 12.487805 12.487805 30.525745 20.813008 48.563686 20.813009 18.03794 0 36.075881-6.937669 48.563685-20.813009 26.363144-26.363144 26.363144-70.764228 0-97.127371-12.487805-13.875339-30.525745-20.813008-48.563685-20.813008z" p-id="23216" fill="#bfbfbf"></path></svg>