<?xml version="1.0" standalone="no"?><!DOCTYPE svg PUBLIC "-//W3C//DTD SVG 1.1//EN" "http://www.w3.org/Graphics/SVG/1.1/DTD/svg11.dtd"><svg t="1592561168523" class="icon" viewBox="0 0 1063 1024" version="1.1" xmlns="http://www.w3.org/2000/svg" p-id="2938" xmlns:xlink="http://www.w3.org/1999/xlink" width="33.21875" height="32"><defs><style type="text/css"></style></defs><path d="M785.723077 746.338462m29.538461 0l216.615385 0q29.538462 0 29.538462 29.538461l0 0q0 29.538462-29.538462 29.538462l-216.615385 0q-29.538462 0-29.538461-29.538462l0 0q0-29.538462 29.538461-29.538461Z" p-id="2939"></path><path d="M785.723077 590.769231m29.538461 0l216.615385 0q29.538462 0 29.538462 29.538461l0 0q0 29.538462-29.538462 29.538462l-216.615385 0q-29.538462 0-29.538461-29.538462l0 0q0-29.538462 29.538461-29.538461Z" p-id="2940"></path><path d="M785.723077 435.2m29.538461 0l216.615385 0q29.538462 0 29.538462 29.538462l0 0q0 29.538462-29.538462 29.538461l-216.615385 0q-29.538462 0-29.538461-29.538461l0 0q0-29.538462 29.538461-29.538462Z" p-id="2941"></path><path d="M558.473846 1013.366154a54.744615 54.744615 0 0 1-25.6-6.301539L337.526154 905.846154a53.563077 53.563077 0 0 1-29.144616-48.049231V449.772308L21.661538 99.643077a54.350769 54.350769 0 0 1-6.695384-57.895385A53.563077 53.563077 0 0 1 63.803077 10.633846H897.969231a53.563077 53.563077 0 0 1 49.624615 32.689231 53.956923 53.956923 0 0 1-9.452308 58.683077l-320.590769 351.310769-4.726154 506.092308a54.744615 54.744615 0 0 1-26.387692 46.08 55.532308 55.532308 0 0 1-27.963077 7.876923z m-191.803077-159.901539l187.864616 99.249231 5.907692-502.547692a52.775385 52.775385 0 0 1 14.178461-35.84l315.076924-345.403077H72.073846L354.461538 415.507692a55.138462 55.138462 0 0 1 12.209231 34.264616z" p-id="2942"></path></svg>