<?xml version="1.0" standalone="no"?><!DOCTYPE svg PUBLIC "-//W3C//DTD SVG 1.1//EN" "http://www.w3.org/Graphics/SVG/1.1/DTD/svg11.dtd"><svg t="1603520332128" class="icon" viewBox="0 0 1024 1024" version="1.1" xmlns="http://www.w3.org/2000/svg" p-id="7810" xmlns:xlink="http://www.w3.org/1999/xlink" width="16" height="16"><defs><style type="text/css"></style></defs><path d="M895.786667 960.298667h-89.557334c-8.469333 0-16.149333-4.992-19.541333-12.672a32.021333 32.021333 0 0 0-29.354667-18.986667 32 32 0 0 0-29.354666 18.986667 21.312 21.312 0 0 1-19.541334 12.672h-72.874666c-8.469333 0-16.149333-4.992-19.541334-12.672a32.021333 32.021333 0 0 0-29.354666-18.986667 32 32 0 0 0-29.354667 18.986667 21.312 21.312 0 0 1-19.541333 12.672h-72.874667c-8.469333 0-16.149333-4.992-19.541333-12.672a32.021333 32.021333 0 0 0-29.354667-18.986667 32 32 0 0 0-29.354667 18.986667 21.312 21.312 0 0 1-19.541333 12.672h-62.208c-8.469333 0-16.149333-4.992-19.541333-12.672A32.021333 32.021333 0 0 0 256 928.64a32 32 0 0 0-29.354667 18.986667 21.333333 21.333333 0 0 1-19.541333 12.672H106.88c-23.573333 0-42.88-18.752-42.88-42.005334V84.48c0-23.317333 19.114667-41.984 42.88-41.984h788.906667c23.573333 0 42.88 18.752 42.88 41.984v833.813333c0 23.317333-19.136 42.005333-42.88 42.005334z m0-875.605334L106.666667 84.650667s0.021333 833.450667 0.213333 833.450666h87.829333A74.944 74.944 0 0 1 256 886.464c24.917333 0 47.594667 12.202667 61.290667 31.637333h37.418666a74.944 74.944 0 0 1 61.290667-31.637333c24.917333 0 47.594667 12.202667 61.290667 31.637333h48.085333a74.944 74.944 0 0 1 61.290667-31.637333c24.917333 0 47.594667 12.202667 61.290666 31.637333h48.085334a74.944 74.944 0 0 1 61.290666-31.637333c24.917333 0 47.594667 12.202667 61.290667 31.637333l77.376 0.042667S895.978667 84.693333 895.786667 84.693333z m-106.410667 675.178667H191.957333A21.141333 21.141333 0 0 1 170.666667 738.773333c0-11.648 9.536-21.098667 21.290666-21.098666h597.418667c11.754667 0 21.290667 9.365333 21.290667 21.098666a21.205333 21.205333 0 0 1-21.290667 21.098667z m0-147.690667H191.957333a21.162667 21.162667 0 0 1-21.290666-21.12c0-11.626667 9.536-21.098667 21.290666-21.098666h597.418667c11.754667 0 21.290667 9.386667 21.290667 21.098666 0 11.648-9.536 21.12-21.290667 21.12z m-0.085333-211.008h-213.226667a21.184 21.184 0 0 1-21.376-21.098666 21.333333 21.333333 0 0 1 21.376-21.098667h213.226667a21.184 21.184 0 0 1 21.376 21.098667 21.333333 21.333333 0 0 1-21.376 21.098666z m0-147.690666h-213.226667a21.184 21.184 0 0 1-21.376-21.098667 21.333333 21.333333 0 0 1 21.376-21.098667h213.226667a21.184 21.184 0 0 1 21.376 21.098667 21.333333 21.333333 0 0 1-21.376 21.098667z m-320.106667 189.888H213.482667A21.354667 21.354667 0 0 1 192 422.122667V169.237333c0-11.733333 9.6-21.248 21.482667-21.248h255.701333c11.861333 0 21.482667 9.493333 21.482667 21.248v252.885334c0 11.733333-9.6 21.248-21.482667 21.248zM448 190.186667H234.666667v210.986666h213.333333v-210.986666z" fill="" p-id="7811"></path></svg>