<?xml version="1.0" standalone="no"?><!DOCTYPE svg PUBLIC "-//W3C//DTD SVG 1.1//EN" "http://www.w3.org/Graphics/SVG/1.1/DTD/svg11.dtd"><svg t="1584074829094" class="icon" viewBox="0 0 1024 1024" version="1.1" xmlns="http://www.w3.org/2000/svg" p-id="1636" width="48" height="48" xmlns:xlink="http://www.w3.org/1999/xlink"><defs><style type="text/css"></style></defs><path d="M576.034 734.28H64.022c-11.782 0-21.344 9.562-21.344 21.342v63.996c0 11.782 9.562 21.312 21.344 21.312h512.01a21.3 21.3 0 0 0 21.312-21.312v-63.996c0.002-11.78-9.53-21.342-21.31-21.342z" fill="#bfbfbf" p-id="1637"></path><path d="M957.862 904.678c-13.844-0.438-26.904-5.25-37.748-13.906L486.38 545.066c-9.218-7.342-10.718-20.764-3.376-29.966l53.184-66.732c3.5-4.422 8.656-7.282 14.282-7.906s11.25 0.984 15.688 4.516l433.732 345.704c27.594 21.966 32.156 62.342 10.156 89.936-12.53 15.748-32.062 24.748-52.184 24.06z" fill="#bfbfbf" p-id="1638"></path><path d="M638.466 312.264l-158.492-126.308c-9.188-7.36-22.624-5.828-29.968 3.376-5.876 7.374-6.062 17.436-1.218 24.936-0.624 1.782-2.25 5.078-6.218 10.062s-6.812 7.282-8.406 8.312c-8.406-3.078-18.156-0.624-24.03 6.734-7.342 9.218-5.844 22.64 3.376 29.982 0 0 0 0.016 0.032 0.016l158.432 126.276s0 0.016 0.032 0.032a21.116 21.116 0 0 0 12.562 4.624c0.218 0.016 0.406 0.016 0.624 0.016 11.5 0.078 21.06-9.046 21.436-20.624a21.206 21.206 0 0 0-3.438-12.358c0.656-1.782 2.25-5.092 6.218-10.046 3.968-4.984 6.844-7.282 8.406-8.312 8.406 3.078 18.186 0.64 24.06-6.734 7.312-9.218 5.812-22.64-3.408-29.984z m-198.366-76.262c-0.344-0.282-0.718-0.546-1.094-0.812 0.5 0.328 0.876 0.624 1.094 0.812z m171.776 109.636c0.376 0.282 0.718 0.546 1.094 0.796-0.47-0.326-0.846-0.624-1.094-0.796zM439.038 562.504c-0.032 0-0.032-0.032-0.032-0.032l-158.43-126.26c-0.032-0.016-0.032-0.016-0.032-0.032-9.218-7.328-22.624-5.812-29.968 3.39a21.35 21.35 0 0 0-1.218 24.938c-0.656 1.782-2.25 5.078-6.218 10.062-3.968 4.984-6.842 7.282-8.436 8.312-8.376-3.078-18.156-0.64-24.032 6.734-7.342 9.218-5.812 22.64 3.406 29.984 0 0.016 0 0.032 0.032 0.032l158.432 126.246v0.032a21.426 21.426 0 0 0 12.592 4.656h0.594c11.53 0.062 21.092-9.032 21.466-20.624a21.07 21.07 0 0 0-3.468-12.376c0.656-1.782 2.28-5.094 6.218-10.032 3.968-5 6.844-7.282 8.438-8.312 8.376 3.062 18.156 0.624 24.03-6.75 7.344-9.218 5.844-22.624-3.374-29.968z m-198.398-76.262z m171.806 109.604v0.032c0.344 0.25 0.688 0.532 1.062 0.782a11.198 11.198 0 0 1-1.062-0.814z" fill="#bfbfbf" p-id="1639"></path><path d="M570.19 611.846l79.776-100.074-33.372-26.592-79.78 100.074zM903.832 877.774l79.778-100.092-33.374-26.592-79.778 100.09z" fill="#bfbfbf" p-id="1640"></path><path d="M627.342 393.214a21.38 21.38 0 0 0-7.904-14.28l-200.18-159.556a21.33 21.33 0 0 0-15.686-4.516 21.424 21.424 0 0 0-14.312 7.906l-159.556 200.196a21.33 21.33 0 0 0-4.5 15.686 21.2 21.2 0 0 0 7.906 14.282l200.178 159.54a21.336 21.336 0 0 0 12.562 4.656 21.318 21.318 0 0 0 17.406-8.032l159.556-200.178a21.394 21.394 0 0 0 4.53-15.704z" fill="#bfbfbf" p-id="1641"></path><path d="M429.102 330.654c-47.03-1.562-86.558 35.42-88.122 82.45s35.436 86.558 82.464 88.122c47.03 1.546 86.56-35.436 88.122-82.466 1.532-47.028-35.436-86.558-82.464-88.106z" fill="#bfbfbf" p-id="1642"></path><path d="M447.6 416.636c-0.406 11.78-10.25 21.014-22.03 20.624-11.782-0.39-21-10.264-20.624-22.03 0.376-11.782 10.25-21.016 22.032-20.624 11.778 0.39 20.998 10.264 20.622 22.03z" fill="#bfbfbf" p-id="1643"></path><path d="M720.402 276.438a21.192 21.192 0 0 0-7.906-14.28L512.318 102.6a21.292 21.292 0 0 0-15.688-4.516 21.354 21.354 0 0 0-14.28 7.906l-53.186 66.732c-3.532 4.422-5.156 10.062-4.532 15.688s3.468 10.764 7.906 14.28l200.178 159.558a21.302 21.302 0 0 0 12.594 4.64 21.316 21.316 0 0 0 17.406-8.03l53.186-66.732a21.194 21.194 0 0 0 4.5-15.688zM420.008 629.158l-200.21-159.54a21.25 21.25 0 0 0-15.686-4.516 21.362 21.362 0 0 0-14.282 7.906L136.644 539.74c-7.344 9.202-5.844 22.608 3.376 29.952l200.21 159.556a21.26 21.26 0 0 0 12.562 4.656 21.36 21.36 0 0 0 17.406-8.032l53.184-66.716a21.28 21.28 0 0 0 4.5-15.716 21.32 21.32 0 0 0-7.874-14.282z" fill="#bfbfbf" p-id="1644"></path><path d="M618.688 798.056H21.368c-11.78 0-21.342 9.56-21.342 21.342v85.31c0 11.78 9.562 21.342 21.342 21.342h597.32c11.78 0 21.342-9.562 21.342-21.342v-85.31c0-11.78-9.564-21.342-21.342-21.342z" fill="#bfbfbf" p-id="1645"></path><path d="M469.38 733.904c0 0.124-0.032 0.25-0.032 0.376v21.342c0 11.782 9.562 21.31 21.342 21.31a21.296 21.296 0 0 0 21.312-21.31V734.28v-0.376H469.38zM384.042 733.904c0 0.124-0.032 0.25-0.032 0.376v21.342c0 11.782 9.562 21.31 21.342 21.31 11.782 0 21.344-9.53 21.344-21.31V734.28c0-0.124-0.032-0.25-0.032-0.376h-42.622zM298.7 733.904v21.718a21.296 21.296 0 0 0 21.312 21.31c11.78 0 21.342-9.53 21.342-21.31V734.28c0-0.124-0.032-0.25-0.032-0.376H298.7zM213.39 733.904c-0.032 0.124-0.032 0.25-0.032 0.376v21.342c0 11.782 9.562 21.31 21.344 21.31 11.78 0 21.312-9.53 21.312-21.31V734.28v-0.376h-42.624zM128.05 733.904c0 0.124-0.032 0.25-0.032 0.376v21.342c0 11.782 9.562 21.31 21.344 21.31 11.78 0 21.342-9.53 21.342-21.31V734.28c0-0.124-0.03-0.25-0.03-0.376H128.05z" fill="#bfbfbf" p-id="1646"></path></svg>