<?xml version="1.0" standalone="no"?><!DOCTYPE svg PUBLIC "-//W3C//DTD SVG 1.1//EN" "http://www.w3.org/Graphics/SVG/1.1/DTD/svg11.dtd"><svg t="1590512615170" class="icon" viewBox="0 0 1024 1024" version="1.1" xmlns="http://www.w3.org/2000/svg" p-id="10429" width="16" height="16" xmlns:xlink="http://www.w3.org/1999/xlink"><defs><style type="text/css"></style></defs><path d="M595.968 428.032h251.904c30.72 0 55.808 25.088 55.808 55.808v364.032c0 30.72-25.088 55.808-55.808 55.808H483.84c-30.72 0-55.808-25.088-55.808-55.808v-251.904H176.128c-30.72 0-55.808-25.088-55.808-55.808V176.128c0-30.72 25.088-55.808 55.808-55.808h364.032c30.72 0 55.808 25.088 55.808 55.808v251.904z m0 55.808v55.808c0 30.72-25.088 55.808-55.808 55.808h-56.32v224.256c0 15.36 12.288 28.16 28.16 28.16h308.224c15.36 0 28.16-12.288 28.16-28.16V512c0-15.36-12.288-28.16-28.16-28.16h-224.256z m-419.84-280.064V512c0 15.36 12.288 28.16 28.16 28.16H512c7.168 0 14.336-3.072 19.968-8.192 5.12-5.12 8.192-12.288 8.192-19.968V203.776c0-7.168-3.072-14.336-8.192-19.968-5.12-5.12-12.288-8.192-19.968-8.192H203.776c-7.168 0-14.336 3.072-19.968 8.192-4.608 5.632-7.68 12.8-7.68 19.968z m55.808 214.016V276.992h98.816V218.112h40.96c5.632 1.024 8.192 1.536 8.192 2.56s-0.512 2.56-1.024 3.584c-2.56 6.656-3.584 13.824-3.584 23.04v30.208h104.448V414.72H435.2v-17.92H375.296v103.424h-43.52V396.288H272.896v21.504h-40.96z m40.96-107.008V363.52h58.88V310.784H272.896zM435.2 363.52V310.784H375.296V363.52H435.2z m178.688 427.008H568.32l80.384-222.72h56.32l78.336 222.72h-48.128l-16.896-47.104h-88.064l-16.384 47.104z m28.672-83.968H706.56l-30.208-95.232h-1.024l-32.768 95.232z m205.312-362.496h-55.808c0-61.952-50.176-112.128-112.128-112.128V176.128c92.672 0 167.936 75.264 167.936 167.936zM176.128 679.936h55.808c0 61.952 50.176 112.128 112.128 112.128v55.808c-92.672 0-167.936-75.264-167.936-167.936z" fill="#333333" p-id="10430"></path></svg>