<?xml version="1.0" standalone="no"?><!DOCTYPE svg PUBLIC "-//W3C//DTD SVG 1.1//EN" "http://www.w3.org/Graphics/SVG/1.1/DTD/svg11.dtd"><svg t="1600955192739" class="icon" viewBox="0 0 1024 1024" version="1.1" xmlns="http://www.w3.org/2000/svg" p-id="8959" xmlns:xlink="http://www.w3.org/1999/xlink" width="16" height="16"><defs><style type="text/css"></style></defs><path d="M857.6 429.5H637.1C722.5 113.2 578.2 97 578.2 97c-61.2 0-48.5 48.5-53.1 56.6 0 154.7-163.9 275.9-163.9 275.9v438.7c0 43.3 58.9 58.9 82 58.9h331.3c31.2 0 56.6-82 56.6-82 82-279.4 82-362.5 82-362.5-0.1-57.8-55.5-53.1-55.5-53.1z m0 0M270.7 429.6h-132c-27.3 0-27.7 26.8-27.7 26.8l27.3 442.4c0 28.2 28.1 28.2 28.1 28.2h114.3c23.8 0 23.6-18.6 23.6-18.6V463.1c0-33.9-33.6-33.5-33.6-33.5z m0 0" p-id="8960" fill="#8a8a8a"></path></svg>