<?xml version="1.0" standalone="no"?><!DOCTYPE svg PUBLIC "-//W3C//DTD SVG 1.1//EN" "http://www.w3.org/Graphics/SVG/1.1/DTD/svg11.dtd"><svg t="1590575314273" class="icon" viewBox="0 0 1024 1024" version="1.1" xmlns="http://www.w3.org/2000/svg" p-id="18773" width="16" height="16" xmlns:xlink="http://www.w3.org/1999/xlink"><defs><style type="text/css"></style></defs><path d="M845.5168 662.272a146.944 146.944 0 0 1-146.7904 146.7904h-246.784a85.504 85.504 0 0 1-85.3504-85.3504V497.8176c0-19.6096 6.4-38.0416 18.5344-53.248a405.4528 405.4528 0 0 0 87.9104-251.392V143.36h36.6592c20.224 0 36.6592 16.4864 36.6592 36.6592v200.448a30.72 30.72 0 0 0 30.72 30.72h224c24.5248 0 44.4416 19.9168 44.4416 44.3904v206.6944zM305.152 819.2a20.7872 20.7872 0 0 1-20.48 20.5312H215.04A20.7872 20.7872 0 0 1 194.56 819.2V486.2976a20.48 20.48 0 0 1 20.48-20.48h69.632c11.1104 0 20.48 9.3696 20.48 20.48V819.2z m495.9232-469.4528h-193.28V180.0192A98.2016 98.2016 0 0 0 509.696 81.92h-47.4112a50.7392 50.7392 0 0 0-50.688 50.688v60.5696a343.3472 343.3472 0 0 1-74.5472 213.0944c-2.8672 3.6864-5.1712 7.68-7.68 11.52a81.152 81.152 0 0 0-44.6976-13.4144H215.04c-45.1584 0-81.92 36.7616-81.92 81.92V819.2c0 45.1584 36.7616 81.92 81.92 81.92h69.632c37.888 0 69.5808-26.0096 78.848-60.9792a145.664 145.664 0 0 0 88.4224 30.3104h246.784a208.384 208.384 0 0 0 208.2304-208.1792V455.5776a105.984 105.984 0 0 0-105.8816-105.8304z" p-id="18774"></path></svg>