<?xml version="1.0" standalone="no"?><!DOCTYPE svg PUBLIC "-//W3C//DTD SVG 1.1//EN" "http://www.w3.org/Graphics/SVG/1.1/DTD/svg11.dtd"><svg t="1591121686457" class="icon" viewBox="0 0 1054 1024" version="1.1" xmlns="http://www.w3.org/2000/svg" p-id="6886" width="16.46875" height="16" xmlns:xlink="http://www.w3.org/1999/xlink"><defs><style type="text/css"></style></defs><path d="M209.377882 1024c-4.397176 0-8.884706-0.903529-13.101176-2.831059-12.890353-5.722353-21.323294-19.215059-21.323294-34.213647v-182.543059h-63.247059C50.145882 804.442353 0.150588 750.712471 0 684.333176V120.139294C0.150588 53.729882 50.115765 0 111.736471 0h830.735058C1004.032 0 1054.027294 53.729882 1054.117647 120.169412v564.163764c0 66.258824-49.995294 120.079059-111.646118 120.079059H427.881412l-194.048 208.715294a33.370353 33.370353 0 0 1-24.45553 10.872471zM111.706353 74.24c-23.521882 0-42.706824 20.630588-42.706824 45.899294v564.193882c0 25.389176 19.184941 45.929412 42.706824 45.929412h97.731765a33.129412 33.129412 0 0 1 24.395294 10.842353c6.445176 6.927059 10.059294 16.384 10.059294 26.232471v130.017882l145.197176-156.220235c6.475294-6.987294 15.239529-10.842353 24.395294-10.842353h528.956236c11.294118 0 22.166588-4.818824 30.177882-13.462588a47.887059 47.887059 0 0 0 12.528941-32.527059V120.169412c0-25.298824-19.184941-45.899294-42.706823-45.899294H111.706353z m634.006588 268.528941c-30.479059 0-55.326118 26.654118-55.326117 59.392 0 32.918588 24.756706 59.632941 55.296 59.632941 30.539294 0 55.296-26.714353 55.296-59.632941 0-32.737882-24.726588-59.392-55.265883-59.392z m-218.684235 0c-30.479059 0-55.265882 26.654118-55.265882 59.392 0.993882 32.165647 25.479529 57.645176 55.326117 57.645177s54.332235-25.479529 55.326118-57.645177c0-32.737882-24.816941-59.392-55.386353-59.392z m-218.563765 0c-30.479059 0-55.296 26.654118-55.296 59.392 0.993882 32.165647 25.479529 57.645176 55.326118 57.645177s54.302118-25.479529 55.326117-57.645177c0-32.737882-24.816941-59.392-55.356235-59.392z" p-id="6887"></path></svg>