<?xml version="1.0" standalone="no"?><!DOCTYPE svg PUBLIC "-//W3C//DTD SVG 1.1//EN" "http://www.w3.org/Graphics/SVG/1.1/DTD/svg11.dtd"><svg t="1591121657493" class="icon" viewBox="0 0 1260 1024" version="1.1" xmlns="http://www.w3.org/2000/svg" p-id="6707" width="19.6875" height="16" xmlns:xlink="http://www.w3.org/1999/xlink"><defs><style type="text/css"></style></defs><path d="M1171.692308 0H88.615385A88.873846 88.873846 0 0 0 0 88.615385v846.76923a88.873846 88.873846 0 0 0 88.615385 88.615385h1083.076923a88.873846 88.873846 0 0 0 88.615384-88.615385V88.615385a88.873846 88.873846 0 0 0-88.615384-88.615385z m-50.695385 88.615385L630.449231 524.664615 149.649231 88.615385z m50.535385 846.76923H88.775385l-0.16-0.16V152.898462l511.778461 464.123076a44.307692 44.307692 0 0 0 59.2 0.295385L1171.692308 162.116923v773.107692z" p-id="6708"></path></svg>