<?xml version="1.0" standalone="no"?><!DOCTYPE svg PUBLIC "-//W3C//DTD SVG 1.1//EN" "http://www.w3.org/Graphics/SVG/1.1/DTD/svg11.dtd"><svg t="1601386139418" class="icon" viewBox="0 0 1024 1024" version="1.1" xmlns="http://www.w3.org/2000/svg" p-id="1761" xmlns:xlink="http://www.w3.org/1999/xlink" width="16" height="16"><defs><style type="text/css"></style></defs><path d="M378.501499 913.518482c-17.390609 0-34.781219-5.114885-48.079921-15.344656-19.436563-14.321678-32.735265-37.85015-33.758241-62.401598 0-2.045954-1.022977-6.137862-2.045954-7.160839l-1.022977-1.022977c-1.022977-1.022977-3.068931-1.022977-5.114886-1.022977h-166.745254c-4.091908 0-7.160839-3.068931-7.160839-7.16084s3.068931-7.160839 7.160839-7.160839h166.745254c5.114885 0 11.252747 1.022977 16.367633 5.114885 6.137862 5.114885 7.160839 14.321678 7.160839 18.413587 1.022977 19.436563 11.252747 38.873127 27.62038 50.125874 12.275724 9.206793 27.62038 13.298701 42.965035 13.298701 17.390609-1.022977 35.804196-9.206793 47.056943-22.505494 10.22977-11.252747 16.367632-26.597403 16.367632-41.942058 0-4.091908 1.022977-11.252747 6.137862-16.367633s12.275724-6.137862 16.367633-6.137862h166.745254c4.091908 0 7.160839 3.068931 7.160839 7.160839 0 4.091908-3.068931 7.160839-7.160839 7.16084h-166.745254c-4.091908 0-5.114885 1.022977-6.137863 1.022977l-1.022977 1.022977c-1.022977 1.022977-2.045954 5.114885-2.045954 6.137862-1.022977 18.413586-7.160839 36.827173-20.45954 51.148851-14.321678 16.367632-35.804196 26.597403-57.286713 27.62038 0-1.022977-1.022977 0-3.068931 0z m158.561438-640.383617l76.723277 34.781219 125.826174-99.228771-96.159841 103.320679 96.159841 31.712288 53.194805-193.342658-255.744256 122.757243z m106.38961 63.424576l-5.114885 59.332667 32.735265-42.965035-27.62038-16.367632z m-313.030969 304.847152c-19.436563 11.252747-33.758242 16.367632-33.758241 16.367633l3.068931 8.183816c1.022977 0 15.344655-6.137862 34.781219-17.390609l-4.091909-7.16084z m42.965035-29.666333c-9.206793 7.160839-18.413586 14.321678-27.620379 20.45954-2.045954 2.045954-3.068931 4.091908-2.045954 6.137862 2.045954 2.045954 4.091908 3.068931 6.137862 2.045954 10.22977-6.137862 19.436563-13.298701 28.643357-20.45954 1.022977-1.022977 2.045954-3.068931 2.045954-4.091908 0-2.045954-2.045954-3.068931-3.068932-4.091908-2.045954-1.022977-3.068931-1.022977-4.091908 0z m49.102897-47.056943c-2.045954-2.045954-5.114885-1.022977-6.137862 1.022977-7.160839 11.252747-16.367632 21.482517-26.597402 30.68931-2.045954 2.045954-2.045954 5.114885 0 6.137863s5.114885 2.045954 6.137862 0c11.252747-10.22977 19.436563-21.482517 27.62038-32.735265 1.022977-1.022977 1.022977-2.045954 1.022977-3.068931l-2.045955-2.045954z m21.482518-99.228772c0 2.045954 1.022977 3.068931 3.068931 4.091909 2.045954 1.022977 3.068931 1.022977 5.114885-1.022977 1.022977-1.022977 2.045954-3.068931 2.045954-4.091909-2.045954-20.45954-9.206793-35.804196-21.482517-46.033966-2.045954-2.045954-5.114885-1.022977-6.137862 1.022977-2.045954 2.045954-2.045954 5.114885 1.022977 6.137863 8.183816 7.160839 14.321678 21.482517 16.367632 39.896103z m-74.677323-46.033966c1.022977 0 1.022977 0 2.045954-1.022977 12.275724-5.114885 25.574426-7.160839 37.85015-4.091908 3.068931 1.022977 5.114885-1.022977 6.137862-3.068931 1.022977-3.068931-1.022977-5.114885-3.068931-6.137862-14.321678-4.091908-29.666334-3.068931-43.988012 4.091908-2.045954 1.022977-3.068931 3.068931-3.068931 5.114885 0 4.091908 2.045954 5.114885 4.091908 5.114885z m-24.551448 47.056943c-1.022977-4.091908-1.022977-7.160839-1.022977-11.252747l4.091908-14.321678c2.045954-4.091908 4.091908-7.160839 7.160839-10.22977 2.045954-2.045954 2.045954-5.114885 0-6.137862-2.045954-2.045954-5.114885-2.045954-6.137862 0-12.275724 12.275724-16.367632 27.62038-13.298701 43.988012 1.022977 3.068931 3.068931 4.091908 5.114885 3.068931 3.068931-1.022977 4.091908-3.068931 4.091908-5.114886z m1.022977 15.344656c-2.045954 2.045954-3.068931 4.091908-1.022977 6.137862 5.114885 7.160839 11.252747 14.321678 18.413586 20.45954 3.068931 2.045954 6.137862 5.114885 8.183816 7.16084 2.045954 2.045954 5.114885 1.022977 6.137862-1.022977 2.045954-2.045954 1.022977-5.114885-1.022977-6.137863l-8.183816-6.137862c-7.160839-6.137862-13.298701-12.275724-17.390609-18.413586 0-3.068931-3.068931-3.068931-5.114885-2.045954z m71.608391 53.194805c2.045954 0 4.091908-2.045954 4.091908-4.091908s-2.045954-4.091908-4.091908-5.114885c-9.206793-1.022977-17.390609-4.091908-26.597402-8.183816-2.045954-1.022977-5.114885 0-6.137862 2.045954-1.022977 2.045954 0 5.114885 2.045954 6.137862 10.22977 4.091908 20.45954 7.160839 30.68931 9.206793z m34.781219-11.252747c-2.045954 1.022977-4.091908 1.022977-5.114885 2.045954 3.068931-11.252747 5.114885-22.505495 6.137862-32.735265 0-1.022977-1.022977-2.045954-1.022977-3.068931-1.022977-1.022977-2.045954-2.045954-3.068931-2.045954-3.068931 0-5.114885 2.045954-5.114885 4.091908-1.022977 12.275724-3.068931 23.528472-7.160839 34.781219-2.045954 0-4.091908 0-5.114885 1.022977-3.068931 0-4.091908 2.045954-4.091908 4.091908 0 3.068931 2.045954 4.091908 5.114885 4.091908h2.045954c-2.045954 4.091908-4.091908 8.183816-6.137862 13.298701-1.022977 2.045954 0 5.114885 2.045954 6.137862s5.114885 1.022977 6.137862-2.045954c3.068931-6.137862 6.137862-12.275724 8.183816-17.390609 4.091908-1.022977 7.160839-2.045954 11.252747-3.068931 3.068931-1.022977 4.091908-3.068931 3.068931-5.114885-2.045954-4.091908-4.091908-5.114885-7.160839-4.091908z m54.217782-32.735265c-11.252747 9.206793-21.482517 17.390609-31.712287 22.505495-2.045954 1.022977-3.068931 4.091908-2.045954 6.137862 1.022977 2.045954 4.091908 3.068931 6.137862 2.045954 11.252747-6.137862 22.505495-14.321678 33.758242-23.528472 1.022977-1.022977 2.045954-3.068931 2.045954-4.091908-1.022977-2.045954-2.045954-3.068931-3.068932-3.068931-3.068931-1.022977-4.091908-1.022977-5.114885 0z m47.056943-46.033966c-1.022977-1.022977-2.045954-1.022977-3.068931-1.022977-1.022977 0-2.045954 1.022977-3.068931 2.045954-7.160839 10.22977-15.344655 20.45954-23.528471 27.62038-2.045954 2.045954-2.045954 5.114885 1.022977 6.137862 2.045954 2.045954 5.114885 2.045954 6.137862 0 8.183816-8.183816 16.367632-18.413586 24.551448-29.666334 1.022977-1.022977 1.022977-2.045954 1.022977-3.068931-2.045954 1.022977-2.045954 0-3.068931-2.045954z m36.827173-58.30969c-1.022977-1.022977-2.045954-1.022977-3.068931-1.022977-1.022977 1.022977-2.045954 1.022977-3.068931 2.045954-7.160839 13.298701-15.344655 25.574426-23.528471 36.827173-1.022977 2.045954-1.022977 3.068931-1.022977 5.114885 1.022977 2.045954 2.045954 3.068931 4.091908 3.068931s3.068931-1.022977 4.091908-2.045954c8.183816-12.275724 16.367632-25.574426 23.528471-38.873127 1.022977-1.022977 1.022977-2.045954 1.022977-3.068931 0-1.022977-1.022977-2.045954-2.045954-2.045954z m29.666334-59.332668c2.045954 1.022977 3.068931 4.091908 2.045954 6.137862 0 1.022977-6.137862 14.321678-16.367632 34.781219-1.022977 3.068931-4.091908 3.068931-6.137863 2.045954-3.068931-1.022977-3.068931-4.091908-2.045954-6.137862 10.22977-20.45954 16.367632-34.781219 16.367633-34.781219 1.022977-2.045954 2.045954-2.045954 3.068931-3.068931 1.022977 1.022977 2.045954 1.022977 3.068931 1.022977z m314.053946 81.838162c6.137862-8.183816 10.22977-18.413586 12.275724-30.68931 2.045954 12.275724 6.137862 22.505495 12.275725 30.68931 6.137862 8.183816 14.321678 15.344655 23.528471 20.459541-10.22977 5.114885-18.413586 12.275724-23.528471 20.45954-6.137862 8.183816-10.22977 18.413586-12.275725 30.689311-2.045954-12.275724-6.137862-22.505495-12.275724-30.689311-6.137862-8.183816-14.321678-15.344655-23.528472-20.45954 10.22977-5.114885 18.413586-12.275724 23.528472-20.459541z m68.539461-79.792208c2.045954-3.068931 4.091908-7.160839 5.114885-12.275724 1.022977 5.114885 2.045954 9.206793 5.114885 12.275724s6.137862 6.137862 10.22977 8.183817c-4.091908 2.045954-8.183816 5.114885-10.22977 8.183816s-4.091908 7.160839-5.114885 12.275724c-1.022977-5.114885-2.045954-9.206793-5.114885-12.275724s-6.137862-6.137862-10.229771-8.183816c4.091908-2.045954 8.183816-5.114885 10.229771-8.183817z m-746.773227-306.893106c5.114885-6.137862 8.183816-14.321678 10.22977-22.505495 2.045954 9.206793 5.114885 16.367632 10.22977 22.505495s12.275724 11.252747 20.459541 15.344655c-8.183816 4.091908-15.344655 9.206793-20.459541 15.344655s-8.183816 14.321678-10.22977 22.505495c-2.045954-9.206793-5.114885-16.367632-10.22977-22.505495s-12.275724-11.252747-20.459541-15.344655c8.183816-3.068931 15.344655-8.183816 20.459541-15.344655z m-255.744256 66.493506c0-9.206793 7.160839-16.367632 17.390609-17.390609 9.206793 0 17.390609 7.160839 17.39061 17.390609 0 6.137862-3.068931 12.275724-8.183816 15.344655-5.114885 3.068931-12.275724 3.068931-17.39061 0-6.137862-3.068931-9.206793-9.206793-9.206793-15.344655z m672.095904 24.551449c-13.298701 0-24.551449-11.252747-24.551448-24.551449s11.252747-24.551449 24.551448-24.551449 24.551449 11.252747 24.551449 24.551449-11.252747 24.551449-24.551449 24.551449z m0-42.965035c-10.22977 0-18.413586 8.183816-18.413586 18.413586s8.183816 18.413586 18.413586 18.413586 18.413586-8.183816 18.413587-18.413586-9.206793-18.413586-18.413587-18.413586z m-572.867133 924.771228h-15.344655V819.404595h15.344655v175.952048z m3.068931-191.296703l-14.321678-5.114885 29.666334-91.044955c14.321678-41.942058 27.62038-82.861139 41.942058-124.803197l14.321678 5.114885c-14.321678 41.942058-27.62038 82.861139-41.942058 124.803197l-29.666334 91.044955z m-18.413586 15.344655c-1.022977-7.160839 2.045954-13.298701 3.068931-18.413586l1.022977-2.045954 14.321678 5.114885-1.022977 2.045954c-2.045954 4.091908-3.068931 8.183816-3.068931 12.275724l-14.321678 1.022977z m24.551448 203.572428c-5.114885 0-12.275724-1.022977-17.390609-6.137862-6.137862-6.137862-6.137862-14.321678-6.137862-20.459541v-1.022977h15.344655v1.022977c0 4.091908 0 7.160839 2.045954 9.206794l1.022977 1.022977c2.045954 2.045954 5.114885 2.045954 9.206794 2.045954h540.131868c3.068931 0 5.114885-1.022977 6.137862-1.022977l1.022977-1.022977c1.022977-1.022977 1.022977-2.045954 2.045954-5.114886v-180.043956c0-3.068931 0-5.114885-1.022977-7.160839-9.206793-29.666334-19.436563-59.332667-29.666334-88.999001-15.344655-45.010989-29.666334-90.021978-45.010989-135.032967-1.022977-3.068931-3.068931-5.114885-6.137862-5.114885h-391.8002c-3.068931 0-6.137862 0-8.183816 1.022977-2.045954 1.022977-3.068931 2.045954-4.091908 4.091908l-14.321678-5.114885c2.045954-7.160839 7.160839-12.275724 14.321678-14.321678 4.091908-1.022977 8.183816-1.022977 12.275724-1.022977h391.8002c9.206793-1.022977 17.390609 6.137862 20.45954 15.344655 15.344655 45.010989 29.666334 90.021978 45.010989 135.032967 9.206793 29.666334 19.436563 59.332667 29.666334 88.999001v1.022977c1.022977 4.091908 1.022977 8.183816 1.022977 12.275724v179.020979c0 7.160839-2.045954 13.298701-6.137862 16.367633-5.114885 5.114885-13.298701 6.137862-16.367632 6.137862h-545.246754v-1.022977z" p-id="1762" fill="#8a8a8a"></path></svg>