<?xml version="1.0" standalone="no"?><!DOCTYPE svg PUBLIC "-//W3C//DTD SVG 1.1//EN" "http://www.w3.org/Graphics/SVG/1.1/DTD/svg11.dtd"><svg t="1591275958464" class="icon" viewBox="0 0 1024 1024" version="1.1" xmlns="http://www.w3.org/2000/svg" p-id="24744" xmlns:xlink="http://www.w3.org/1999/xlink" width="32" height="32"><defs><style type="text/css"></style></defs><path d="M568.888889 659.911111l-22.755556 7.585185v-49.303703h26.548148v-37.925926h-26.548148v-60.681482h-37.925926v60.681482h-34.133333v37.925926h34.133333v60.681481c-15.17037 3.792593-30.340741 3.792593-41.718518 7.585185l7.585185 37.925926 30.340741-7.585185v64.474074c0 3.792593 0 3.792593-3.792593 3.792593h-26.548148c3.792593 11.377778 11.377778 26.548148 11.377778 37.925926 22.755556 0 34.133333 0 45.511111-7.585186 11.377778-7.585185 15.17037-15.17037 15.17037-34.133333v-75.851852l30.340741-7.585185-7.585185-37.925926zM735.762963 621.985185h34.133333v-37.925926h-30.34074c7.585185-15.17037 18.962963-34.133333 30.34074-53.096296l-41.718518-15.17037c-7.585185 18.962963-15.17037 49.303704-26.548148 68.266666h-53.096297l26.548148-11.377778c-3.792593-15.17037-18.962963-37.925926-30.34074-56.888888l-34.133334 15.17037c11.377778 15.17037 18.962963 37.925926 26.548149 53.096296h-41.718519v37.925926h34.133333v49.303704h-45.511111v37.925926h41.718519c-3.792593 34.133333-15.17037 68.266667-49.303704 91.022222 7.585185 7.585185 22.755556 18.962963 26.548148 26.548148 41.718519-30.340741 56.888889-75.851852 60.681482-117.57037h37.925926v117.57037h37.925926v-117.57037h41.718518v-37.925926h-41.718518v-49.303704z m-37.925926 53.096296h-34.133333v-49.303703h34.133333v49.303703z" p-id="24745"></path><path d="M618.192593 333.748148c-189.62963 0-341.333333 151.703704-341.333334 341.333333s151.703704 341.333333 341.333334 341.333334 341.333333-151.703704 341.333333-341.333334-151.703704-341.333333-341.333333-341.333333z m0 606.814815c-147.911111 0-265.481481-121.362963-265.481482-265.481482 0-147.911111 121.362963-265.481481 265.481482-265.481481 147.911111 0 265.481481 121.362963 265.481481 265.481481 0 147.911111-117.57037 265.481481-265.481481 265.481482zM242.725926 515.792593c-7.585185-7.585185-15.17037-11.377778-26.548148-11.377778-18.962963 0-34.133333 15.17037-34.133334 37.925926 0 18.962963 15.17037 37.925926 34.133334 37.925926h7.585185c3.792593-26.548148 11.377778-45.511111 18.962963-64.474074zM216.177778 326.162963c-18.962963 0-34.133333 15.17037-34.133334 37.925926 0 18.962963 15.17037 34.133333 34.133334 34.133333s34.133333-15.17037 34.133333-34.133333c0-22.755556-15.17037-37.925926-34.133333-37.925926zM713.007407 144.118519h60.681482c22.755556 0 45.511111 18.962963 45.511111 45.511111v140.325926c26.548148 15.17037 49.303704 34.133333 72.059259 56.888888V189.62963c0-64.474074-53.096296-117.57037-113.777778-117.570371h-60.681481c-18.962963 0-34.133333 15.17037-34.133333 34.133334-3.792593 22.755556 11.377778 37.925926 30.34074 37.925926zM178.251852 720.592593c0 18.962963 15.17037 34.133333 34.133333 34.133333h3.792593c-3.792593-22.755556-7.585185-45.511111-7.585185-72.059259-15.17037 3.792593-30.340741 18.962963-30.340741 37.925926z" p-id="24746"></path><path d="M151.703704 936.77037c-22.755556 0-45.511111-18.962963-45.511111-45.511111V189.62963c0-22.755556 18.962963-45.511111 45.511111-45.511111h64.474074c18.962963 0 34.133333-15.17037 34.133333-34.133334S235.140741 75.851852 216.177778 75.851852H151.703704c-60.681481-3.792593-113.777778 49.303704-113.777778 113.777778v701.629629c0 64.474074 53.096296 117.57037 113.777778 117.570371h250.311111c-30.340741-22.755556-60.681481-45.511111-87.22963-72.05926H151.703704zM371.674074 216.177778h185.837037c45.511111 0 83.437037-37.925926 83.437037-87.22963V87.22963c0-49.303704-37.925926-87.22963-83.437037-87.22963H371.674074C326.162963 0 284.444444 37.925926 284.444444 87.22963v41.718518c0 49.303704 41.718519 87.22963 87.22963 87.22963z m-15.17037-128.948148c0-7.585185 7.585185-15.17037 15.17037-15.170371h185.837037c7.585185 0 15.17037 7.585185 15.17037 15.170371v41.718518c0 7.585185-7.585185 15.17037-15.17037 15.170371H371.674074c-7.585185 0-15.17037-7.585185-15.17037-15.170371V87.22963zM322.37037 360.296296c0 7.585185 3.792593 15.17037 7.585186 22.755556 22.755556-22.755556 49.303704-41.718519 75.851851-56.888889H356.503704c-18.962963 0-34.133333 15.17037-34.133334 34.133333z" p-id="24747"></path></svg>