<?xml version="1.0" standalone="no"?><!DOCTYPE svg PUBLIC "-//W3C//DTD SVG 1.1//EN" "http://www.w3.org/Graphics/SVG/1.1/DTD/svg11.dtd"><svg t="1591275022024" class="icon" viewBox="0 0 1024 1024" version="1.1" xmlns="http://www.w3.org/2000/svg" p-id="15278" xmlns:xlink="http://www.w3.org/1999/xlink" width="32" height="32"><defs><style type="text/css"></style></defs><path d="M389.6271875 98.20624999c-0.1284375 0-0.1096875 291.4209375-0.1096875 291.42093751 0-0.1284375-291.4209375-0.1096875-291.4209375-0.1096875 0.1284375 0 0.110625-291.4209375 0.110625-291.4209375 0 0.1284375 291.42 0.110625 291.42 0.110625zM32 389.628125c0 36.3946875 29.6184375 66.0965625 66.0965625 66.0965625H389.628125c36.3946875 0 66.0965625-29.6175 66.0965625-66.0965625V98.0965625C455.72375001 61.7028125 426.10624999 32 389.628125 32H98.0965625C61.7028125 32 32 61.6184375 32 98.0965625V389.628125zM925.9034375 98.2071875c-0.1284375 0-0.110625 291.42-0.110625 291.42 0-0.1284375-291.42-0.1096875-291.42-0.1096875 0.1284375 0 0.1096875-291.4209375 0.1096875-291.4209375 0 0.1284375 291.4209375 0.110625 291.4209375 0.110625z m-357.628125 291.42c0 36.3946875 29.6184375 66.0965625 66.0975 66.09656249h291.530625c36.39375001 0 66.0965625-29.6175 66.0965625-66.09656249V98.0965625C992 61.7028125 962.3815625 32 925.9034375 32H634.371875c-36.3946875 0-66.0965625 29.6184375-66.0965625 66.0965625V389.628125zM389.628125 634.4834375c-0.1284375 0-0.1096875 291.42-0.1096875 291.42 0-0.1284375-291.4209375-0.110625-291.4209375-0.110625 0.1284375 0 0.110625-291.42 0.110625-291.42 0 0.1284375 291.42 0.1096875 291.42 0.1096875zM32 925.9025C32 962.2971875 61.6184375 992 98.0965625 992H389.628125c36.3946875 0 66.0965625-29.6184375 66.0965625-66.0965625V634.371875c0-36.3946875-29.6175-66.0965625-66.0965625-66.0965625H98.0965625C61.7028125 568.27624999 32 597.89375001 32 634.371875v291.530625z m893.9034375-291.4209375c-0.1284375 0-0.110625 291.4209375-0.110625 291.4209375 0-0.1284375-291.42-0.110625-291.42-0.110625 0.1284375 0 0.1096875-291.42 0.1096875-291.42 0 0.1284375 291.4209375 0.1096875 291.4209375 0.1096875z m-357.628125 291.4209375c0 36.39375001 29.6184375 66.0965625 66.0975 66.0965625h291.530625c36.39375001 0 66.0965625-29.6184375 66.0965625-66.0965625V634.371875c0-36.3946875-29.6184375-66.0965625-66.0965625-66.0965625H634.371875c-36.3946875 0-66.0965625 29.6175-66.0965625 66.0965625v291.530625z" fill="" p-id="15279"></path></svg>