<?xml version="1.0" standalone="no"?><!DOCTYPE svg PUBLIC "-//W3C//DTD SVG 1.1//EN" "http://www.w3.org/Graphics/SVG/1.1/DTD/svg11.dtd"><svg t="1591275644427" class="icon" viewBox="0 0 1024 1024" version="1.1" xmlns="http://www.w3.org/2000/svg" p-id="23342" xmlns:xlink="http://www.w3.org/1999/xlink" width="32" height="32"><defs><style type="text/css"></style></defs><path d="M789.9648 1024H233.984C160.9216 1024 102.4 964.096 102.4 891.0848V400.384a132.3008 132.3008 0 0 1 131.6352-132.9152h21.504C281.4464 141.5168 388.096 51.2 511.1808 51.2h2.56c123.0848 0 228.9152 90.3168 254.72 216.2688h21.504c73.216 0 131.6864 59.904 131.6864 132.9152v489.8816C921.6 964.0448 863.0784 1024 789.9648 1024zM160.9216 578.4064v311.808c0 40.8576 32.7168 74.752 73.984 74.752h555.8784c40.448 0 74.0352-33.024 74.0352-74.752v-311.808H160.9216z m0-59.0336h702.976V400.384c0-40.8576-32.6656-74.752-73.9328-74.752h-15.5136V466.432a29.184 29.184 0 0 1-29.2352 29.5424 29.184 29.184 0 0 1-29.2864-29.5424V325.632H308.0704v140.6976a29.184 29.184 0 0 1-29.2864 29.5424 29.184 29.184 0 0 1-29.2352-29.5424V325.632H233.984c-40.448 0-73.984 32.9728-73.984 74.7008v118.9888h0.8704z m154.88-251.904h392.3968c-24.064-92.0576-104.96-157.184-195.328-157.184h-2.56c-90.368 0-170.3936 65.1264-194.5088 157.184z" p-id="23343"></path></svg>