<?xml version="1.0" standalone="no"?><!DOCTYPE svg PUBLIC "-//W3C//DTD SVG 1.1//EN" "http://www.w3.org/Graphics/SVG/1.1/DTD/svg11.dtd"><svg t="1591276381510" class="icon" viewBox="0 0 1024 1024" version="1.1" xmlns="http://www.w3.org/2000/svg" p-id="26821" xmlns:xlink="http://www.w3.org/1999/xlink" width="32" height="32"><defs><style type="text/css"></style></defs><path d="M440.557499 307.591239l75.933487-75.933487V417.689286c0 13.280095 11.406554 24.686649 24.741754 24.686649a25.127482 25.127482 0 0 0 24.686649-24.686649V231.602648l75.933487 75.933487c5.730829 5.675725 11.35145 7.60437 17.08228 7.60437s13.280095-1.928644 17.082279-7.60437a24.0254 24.0254 0 0 0 0-34.219663l-104.422321-106.295862a44.689447 44.689447 0 0 0-30.362374-13.280094 37.91164 37.91164 0 0 0-30.417479 13.280094L406.39294 271.498036a24.080504 24.080504 0 0 0 0 34.164559 22.702901 22.702901 0 0 0 34.164559 1.928644z m0 0" fill="#3E3A39" p-id="26822"></path><path d="M932.306732 299.931766h-85.411398C844.96669 134.784696 708.308454 0 541.23274 0 374.157025 0 237.443685 134.784696 235.515041 299.931766h-85.411398a78.247861 78.247861 0 0 0-77.862132 77.862132v563.825431c0 41.768929 34.164559 77.862132 77.862132 77.862133h784.076629a78.247861 78.247861 0 0 0 77.862132-77.862133V377.793898c-1.87354-41.768929-36.093203-77.862132-79.735672-77.862132zM541.23274 86.237959a220.196093 220.196093 0 0 1 219.424635 219.369532 220.140989 220.140989 0 0 1-219.424635 219.424635A220.140989 220.140989 0 0 1 321.808104 305.607491a220.085885 220.085885 0 0 1 219.424636-219.369532z m374.873378 830.088576a19.286445 19.286445 0 0 1-19.066028 19.066028H183.386536a19.286445 19.286445 0 0 1-19.010924-19.066028V403.086692c0-10.359576 8.651348-19.010924 19.010924-19.010924h62.873809c22.482484 131.313136 156.60593 229.839316 294.862186 229.839316s269.900016-98.52618 292.327396-229.839316h63.590163a19.286445 19.286445 0 0 1 19.066028 19.010924v513.239843z" fill="#3E3A39" p-id="26823"></path><path d="M775.645698 667.586504H308.142281c-12.453533 0-23.36415 14.878114-23.36415 31.90529s10.910617 31.90529 23.36415 31.905289h465.960501c12.453533 0 23.419254-14.878114 23.419254-31.905289 1.487811-19.176236-9.367702-31.90529-21.876338-31.90529zM776.692676 810.085777H309.134155c-12.453533 0-23.36415 14.878114-23.36415 31.90529 0 17.027175 10.910617 31.960394 23.36415 31.960394h465.960501c12.453533 0 23.419254-14.933219 23.419255-31.960394 0-17.08228-9.367702-31.90529-21.821235-31.90529z" fill="#3E3A39" p-id="26824"></path></svg>