<?xml version="1.0" standalone="no"?><!DOCTYPE svg PUBLIC "-//W3C//DTD SVG 1.1//EN" "http://www.w3.org/Graphics/SVG/1.1/DTD/svg11.dtd"><svg t="1591637132572" class="icon" viewBox="0 0 1024 1024" version="1.1" xmlns="http://www.w3.org/2000/svg" p-id="1751" xmlns:xlink="http://www.w3.org/1999/xlink" width="32" height="32"><defs><style type="text/css"></style></defs><path d="M596.5312 147.968c0-41.949867-36.881067-76.0832-82.414933-76.0832-45.4144 0-82.414933 34.065067-82.414933 76.0832 0 4.266667 0.375467 8.482133 1.109333 12.578133-113.800533 36.608-207.189333 149.060267-207.189333 282.112l0 104.738133c0 0 0 150.8864-40.123733 152.183467-23.9616 0-42.308267 17.0496-42.308267 38.058667 0 21.111467 18.449067 38.007467 41.216 38.007467l659.4048 0c22.8864 0 41.216-17.015467 41.216-38.007467 0-21.162667-18.432-38.058667-41.216-38.058667-41.198933 0-41.198933-151.108267-41.198933-151.108267l0-105.813333c0-133.2224-87.313067-245.7088-207.2064-282.231467C596.155733 156.398933 596.5312 152.2176 596.5312 147.968zM637.781333 813.6704c-0.136533 63.061333-54.9888 114.176-123.665067 114.176-68.1984 0-123.528533-50.875733-123.665067-114.176L637.781333 813.6704z" p-id="1752"></path></svg>