<?xml version="1.0" standalone="no"?><!DOCTYPE svg PUBLIC "-//W3C//DTD SVG 1.1//EN" "http://www.w3.org/Graphics/SVG/1.1/DTD/svg11.dtd"><svg t="1590476757984" class="icon" viewBox="0 0 1024 1024" version="1.1" xmlns="http://www.w3.org/2000/svg" p-id="3911" width="16" height="16" xmlns:xlink="http://www.w3.org/1999/xlink"><defs><style type="text/css"></style></defs><path d="M359.375 470.065a40.96 40.96 0 1 0-58.026 58.026l146.285 146.286a39.01 39.01 0 0 0 55.101 0l255.513-255.512a39.01 39.01 0 0 0 0-55.101l-3.414-3.414a39.01 39.01 0 0 0-55.1 0L478.841 589.531zM868.45 585.143a356.45 356.45 0 0 1-712.9 0v-376.93L512 82.408l356.45 125.805zM512 0L73.143 146.286v438.857a438.857 438.857 0 0 0 877.714 0V146.286z" p-id="3912"></path></svg>