<?xml version="1.0" standalone="no"?><!DOCTYPE svg PUBLIC "-//W3C//DTD SVG 1.1//EN" "http://www.w3.org/Graphics/SVG/1.1/DTD/svg11.dtd"><svg t="1590518317905" class="icon" viewBox="0 0 1124 1024" version="1.1" xmlns="http://www.w3.org/2000/svg" p-id="39854" width="17.5625" height="16" xmlns:xlink="http://www.w3.org/1999/xlink"><defs><style type="text/css"></style></defs><path d="M895.656 101.443l-7.203-11.318h-653.392l-7.203 9.261c-166.691 210.937-143.025 339.559-114.215 397.179 28.811 57.622 86.433 95.693 147.142 95.693h5.145c77.172-3.087 128.621-41.158 155.374-68.942 24.697 27.782 69.969 63.795 141.997 63.795 75.114 0 121.417-40.129 145.084-67.913 32.927 26.753 96.722 69.969 163.605 69.969 44.246 0 81.289-17.492 112.157-53.506 113.186-129.65-80.259-421.875-88.491-434.222zM944.018 503.769c-20.58 23.666-44.246 34.985-73.057 34.985-64.825 0-131.707-57.622-146.113-72.028v-173.895c0-14.406-11.318-25.725-25.725-25.725s-25.725 11.318-25.725 25.725v188.301c-14.406 18.521-49.39 55.564-111.127 55.564-68.942 0-104.955-47.332-115.244-61.738v-182.126c0-14.406-11.318-25.725-25.725-25.725s-25.725 11.318-25.725 25.725v182.126c-12.347 16.462-55.564 63.795-132.737 66.883h-3.087c-33.955 0-79.23-20.58-101.867-66.883s-39.101-151.258 101.867-333.385h599.886c54.534 82.316 155.374 281.936 84.375 362.196zM897.714 621.071c-14.406 0-25.725 11.318-25.725 25.725v184.185c0 28.811-22.637 51.446-51.449 51.446h-528.886c-28.811 0-51.446-22.637-51.446-51.446v-184.185c0-14.406-11.318-25.725-25.725-25.725s-25.725 11.318-25.725 25.725v189.33c0 53.506 44.246 97.751 97.751 97.751h539.177c54.534 0 97.751-43.217 97.751-97.751v-189.33c0-14.406-11.318-25.725-25.725-25.725z" p-id="39855"></path></svg>