<?xml version="1.0" standalone="no"?><!DOCTYPE svg PUBLIC "-//W3C//DTD SVG 1.1//EN" "http://www.w3.org/Graphics/SVG/1.1/DTD/svg11.dtd"><svg t="1591121566745" class="icon" viewBox="0 0 1078 1024" version="1.1" xmlns="http://www.w3.org/2000/svg" p-id="3452" width="16.84375" height="16" xmlns:xlink="http://www.w3.org/1999/xlink"><defs><style type="text/css"></style></defs><path d="M214.228671 994.341976a24.235781 24.235781 0 0 1-23.896891-28.343541l56.533041-329.647706L7.331091 402.896483a24.246051 24.246051 0 0 1 13.442643-41.365138l330.972458-48.091596L499.810386 13.521954a24.246051 24.246051 0 0 1 43.490904 0L691.27306 313.439749l330.972458 48.091596a24.246051 24.246051 0 0 1 13.442643 41.365138L796.236586 636.350729l56.533041 329.647706a24.246051 24.246051 0 0 1-35.182961 25.560534L521.550704 835.915959 225.504471 991.558969a24.215243 24.215243 0 0 1-11.296339 2.783007zM76.392799 402.465169l213.459726 208.037483a24.246051 24.246051 0 0 1 6.972922 21.463044l-50.391941 293.807503L510.264634 787.054159a24.276859 24.276859 0 0 1 22.592678 0l263.810589 138.71904-50.391941-293.786964a24.246051 24.246051 0 0 1 6.983192-21.463044L966.698339 402.465169l-294.937137-42.864471a24.26659 24.26659 0 0 1-18.258992-13.268064L521.550704 79.050988 389.630005 346.342904a24.25632 24.25632 0 0 1-18.248722 13.268063z m0 0" p-id="3453"></path></svg>