<?xml version="1.0" standalone="no"?><!DOCTYPE svg PUBLIC "-//W3C//DTD SVG 1.1//EN" "http://www.w3.org/Graphics/SVG/1.1/DTD/svg11.dtd"><svg t="1592484152250" class="icon" viewBox="0 0 1024 1024" version="1.1" xmlns="http://www.w3.org/2000/svg" p-id="3190" width="32" height="32" xmlns:xlink="http://www.w3.org/1999/xlink"><defs><style type="text/css"></style></defs><path d="M939.904 821.333333a439.296 439.296 0 0 0-306.346667-317.994666 233.258667 233.258667 0 0 0 111.573334-198.869334c0-128.554667-104.576-233.173333-233.130667-233.173333S278.869333 175.914667 278.869333 304.469333a233.258667 233.258667 0 0 0 111.573334 198.869334 439.296 439.296 0 0 0-306.346667 317.994666 103.594667 103.594667 0 0 0 19.541333 89.088c21.034667 26.88 52.608 42.24 86.613334 42.24H833.706667a109.226667 109.226667 0 0 0 86.613333-42.24c20.138667-25.6 27.221333-58.069333 19.584-89.088zM330.069333 304.469333c0-100.352 81.621333-181.973333 181.930667-181.973333s181.930667 81.621333 181.930667 181.973333S612.352 486.4 512 486.4 330.069333 404.778667 330.069333 304.469333z m549.973334 574.421334a59.306667 59.306667 0 0 1-46.336 22.613333H190.250667a59.306667 59.306667 0 0 1-46.336-22.613333 52.096 52.096 0 0 1-10.154667-45.312C176.725333 659.328 332.245333 537.6 512 537.6s335.274667 121.728 378.197333 295.978667a52.053333 52.053333 0 0 1-10.154666 45.312z" fill="" p-id="3191"></path></svg>