<?xml version="1.0" standalone="no"?><!DOCTYPE svg PUBLIC "-//W3C//DTD SVG 1.1//EN" "http://www.w3.org/Graphics/SVG/1.1/DTD/svg11.dtd"><svg t="1591274457429" class="icon" viewBox="0 0 1151 1024" version="1.1" xmlns="http://www.w3.org/2000/svg" p-id="11244" xmlns:xlink="http://www.w3.org/1999/xlink" width="35.96875" height="32"><defs><style type="text/css"></style></defs><path d="M916.876843 207.985871h-306.761769a23.302765 23.302765 0 0 0 0 46.605529h306.761769a23.302765 23.302765 0 0 0 0-46.605529z m0 116.166021h-306.761769a23.302765 23.302765 0 0 0 0 46.67509h306.761769a23.302765 23.302765 0 0 0 0-46.67509z m-200.890701 139.538346a23.233204 23.233204 0 0 0-23.024523-23.233204H610.115074a23.302765 23.302765 0 0 0 0 46.67509h82.776985a23.233204 23.233204 0 0 0 23.024523-23.372325zM302.866381 499.444331a85.002921 85.002921 0 0 1-18.711772 14.677264 121.313498 121.313498 0 0 1-36.101895 15.442429q-19.963861 5.286597-39.51036 12.103526a114.705251 114.705251 0 0 0-33.180354 18.43353 48.692344 48.692344 0 0 0-17.251002 33.319476 229.966986 229.966986 0 0 0-2.643299 62.604442c2.086815 16.138034 5.147476 25.806942 9.042864 29.006725a49.666191 49.666191 0 0 0 16.9032 5.843082c8.973303 1.947694 19.894301 4.034509 32.762991 5.843081s27.128592 3.895388 42.849263 5.6344q46.883771 5.286597 93.976225 7.999456a675.919299 675.919299 0 0 0 79.438081 0q49.179268-2.573738 98.080294-8.208138c9.460227-1.182528 18.155288-2.434617 26.572108-3.756266V533.320291c-3.130222-0.904286-5.982202-1.669452-9.042864-2.434617a294.588683 294.588683 0 0 1-31.858706-10.851437 82.498743 82.498743 0 0 1-25.320019-14.677264 60.517628 60.517628 0 0 1-13.425174-17.390123 50.292236 50.292236 0 0 1-4.869235-18.36397 67.682359 67.682359 0 0 1 1.182528-18.085728 34.084641 34.084641 0 0 1 9.390667-20.868147c4.660553-4.24319 10.712316-9.181985 18.016167-15.164187a38.536512 38.536512 0 0 0 8.48638-11.547042 137.799334 137.799334 0 0 0 6.956049-15.164187c2.017254-5.843081 4.034509-12.242647 5.912642-18.850894a30.815298 30.815298 0 0 0 11.129679-6.608246 38.18871 38.18871 0 0 0 8.48638-11.547042 52.726853 52.726853 0 0 0 4.938795-19.75518 41.736295 41.736295 0 0 0-4.104069-26.572107 20.868148 20.868148 0 0 0-6.538686-7.651655 383.765233 383.765233 0 0 0-2.851981-47.927178 297.371103 297.371103 0 0 0-9.94715-43.614429 124.235038 124.235038 0 0 0-22.259357-41.736295 89.315671 89.315671 0 0 0-17.668365-16.694518 140.164391 140.164391 0 0 0-26.015624-14.677264 170.701447 170.701447 0 0 0-31.302221-10.364513 143.781537 143.781537 0 0 0-33.597718-3.895387 203.812241 203.812241 0 0 0-27.824197 2.017254A125.695809 125.695809 0 0 0 306.066164 145.450988a113.035799 113.035799 0 0 0-24.902656 26.85035 125.765369 125.765369 0 0 0-18.36397 39.092997 280.954826 280.954826 0 0 0-10.781876 85.698526 36.519258 36.519258 0 0 0-7.582094 12.451328 51.822566 51.822566 0 0 0-3.269343 14.2599 42.36234 42.36234 0 0 0 2.643299 18.29441 45.631683 45.631683 0 0 0 14.677264 23.720127 29.006725 29.006725 0 0 0 8.069017 4.17363c2.017254 6.956049 3.964948 13.007812 5.843081 18.850893s4.17363 10.155832 6.399565 15.164187a37.353984 37.353984 0 0 0 8.277699 11.477482c6.608247 5.495279 12.66001 10.851437 18.085728 16.207594a33.041234 33.041234 0 0 1 9.321105 21.633313q0.626044 9.460227 0.626045 17.111881a39.440799 39.440799 0 0 1-2.921541 14.746824 49.248828 49.248828 0 0 1-9.321106 13.912099zM111.296787 760.574417a60.308946 60.308946 0 0 1-53.561579-60.100264V115.609537a58.083011 58.083011 0 0 1 59.613342-57.874329h872.70593c32.762992 0 62.18708 24.693975 62.18708 57.94389v362.827525c14.607703 11.616602 45.353441 24.415733 57.665647 38.397392V77.76863c0-44.657836-56.413559-77.76863-100.375789-77.76863H79.994566C35.962774 0 0 50.292236 0 95.019632v625.348821c0 41.736295 31.510903 93.697982 71.647307 98.010733h497.148835c-3.617146-13.077372-6.190884-43.962231-8.069017-57.735208H111.296787z m626.044426-37.980028a27.824197 27.824197 0 0 0-18.224849 47.509816l114.705251 108.097004a26.85035 26.85035 0 0 0 40.345086-3.825827l154.632973-213.063786a27.267713 27.267713 0 1 0-43.82311-32.55431L848.638 817.127097 756.192107 730.385164a25.737382 25.737382 0 0 0-18.781333-7.442973M880.148903 473.011344c-150.181102 0-271.842402 123.261191-271.842402 275.389987s121.730861 275.389987 271.842402 275.389988 271.772842-123.330752 271.772841-275.389988S1030.190884 473.011344 880.148903 473.011344z m0 498.957408a223.706542 223.706542 0 1 1 220.785001-223.636981 222.593574 222.593574 0 0 1-220.785001 223.636981z m0 0" fill="#323333" p-id="11245"></path></svg>