<?xml version="1.0" standalone="no"?><!DOCTYPE svg PUBLIC "-//W3C//DTD SVG 1.1//EN" "http://www.w3.org/Graphics/SVG/1.1/DTD/svg11.dtd"><svg t="1591276619646" class="icon" viewBox="0 0 1024 1024" version="1.1" xmlns="http://www.w3.org/2000/svg" p-id="27617" xmlns:xlink="http://www.w3.org/1999/xlink" width="32" height="32"><defs><style type="text/css"></style></defs><path d="M800 864H384L196.608 988.928l-7.68-4.672A62.528 62.528 0 0 1 160 992a64 64 0 0 1-64-64V160A128 128 0 0 1 224 32h576a128 128 0 0 1 128 128v576a128 128 0 0 1-128 128z m64-704a64 64 0 0 0-64-64H224a64 64 0 0 0-64 64v704c0.448 0 0.768 0.256 1.152 0.256-0.384 1.92-1.152 3.712-1.152 5.76a32 32 0 0 0 32 32 31.36 31.36 0 0 0 24.96-12.864l0.832 0.32L352 800h448a64 64 0 0 0 64-64V160zM544 672h-64v-64H352v-64h128v-64H352v-64h118.528L352 270.08l45.952-45.632L506.56 358.08l119.488-133.632L672 270.08 541.568 416H672v64H544v64h128v64H544v64z" p-id="27618"></path></svg>