<svg width="420.93789" height="131.4932" xmlns="http://www.w3.org/2000/svg">
 <metadata id="metadata41">image/svg+xml</metadata>
 <defs>
  <style>.cls-1 {
        fill: #3f3b3a;
      }

      .cls-1, .cls-2 {
        fill-rule: evenodd;
      }

      .cls-2 {
        fill: #e60013;
      }

      .cls-3 {
        fill: none;
        stroke: #231916;
        stroke-miterlimit: 22.9256;
        stroke-width: 0.5669px;
      }</style>
  <pattern y="0" x="0" height="6" width="6" patternUnits="userSpaceOnUse" id="EMFhbasepattern"/>
 </defs>
 <g>
  <title>background</title>
  <rect fill="none" id="canvas_background" height="602" width="802" y="-1" x="-1"/>
 </g>
 <g>
  <title>Layer 1</title>
  <g display="inline" id="layer1">
   <path fill="#fcfcfc" fill-rule="evenodd" d="m413.7998,34.87304c0,-0.33333 0,-1 -0.33333,-1c-0.66667,-0.33333 -1,-0.66667 -1.33333,-0.66667c-9.66667,0 -9.66667,0 -9.66667,0c-0.66667,0 -1,0.33334 -1.66667,0.33334c-0.33333,0.33333 -0.66666,0.66666 -0.66666,1.33333c-2,12 -2,12 -2,12c-0.33334,3.33333 -1.33334,6 -3,7.66667c-1.66667,2 -3.33334,3 -5.33334,3c-3,0 -4,-2.66667 -3,-7.66667c2.33334,-15 2.33334,-15 2.33334,-15c0,-0.33333 0,-1 -0.66667,-1c-0.33333,-0.33333 -0.66667,-0.66667 -1.33333,-0.66667c-9.33334,0 -9.33334,0 -9.33334,0c-0.66666,0 -1,0.33334 -1.66666,0.66667c-0.33334,0 -0.66667,0.66667 -0.66667,1c-2.66667,16.66667 -2.66667,16.66667 -2.66667,16.66667c0,1.33333 -0.33333,3 -0.33333,4c0,1.33333 0.33333,2.66666 0.66667,4c0.33333,1.33333 0.66666,2.33333 1.66666,3.33333c0.66667,0.66667 1.66667,1.66667 3.33334,2c1.33333,0.66667 3,1 5,1c2.66666,0 5.66666,-0.66667 8,-2c2.66666,-1 5,-3 6.66666,-5.66667c0,0 0,0 0,0c-1.33333,5.66667 -1.33333,5.66667 -1.33333,5.66667c-0.66667,5.33333 -4.33333,7.66667 -11,7.66667c-3.33333,0 -6.33333,-0.33334 -9.33333,-1c-1.33334,-0.33334 -2.33334,0 -2.33334,1c-1.33333,5 -1.33333,5 -1.33333,5c0,0.66666 0,1 0.33333,1.33333c0.33334,0.33333 0.66667,0.66667 1.33334,1c3,0.66667 7,1.33333 11.66666,1.33333c14,0 21.66667,-6 23.66667,-17.33333l4.33333,-28z" id="path893"/>
   <path fill="#fcfcfc" fill-rule="evenodd" d="m304.46647,65.87304c6,0 11,-1.33333 14.66667,-3.66667c3.33333,-2.33333 5.66666,-5.66666 6,-10c2.66666,-17.33333 2.66666,-17.33333 2.66666,-17.33333c0,-0.33333 0,-1 -0.33333,-1c-0.33333,-0.33333 -0.66667,-0.66667 -1.33333,-0.66667c-9.66667,0 -9.66667,0 -9.66667,0c-0.66667,0 -1,0.33334 -1.66667,0.33334c-0.33333,0.33333 -0.66666,0.66666 -0.66666,1.33333c-2.33334,16.33333 -2.33334,16.33333 -2.33334,16.33333c-0.33333,2 -1,3.33334 -2,4.33334c-0.66666,1 -2.33333,1.66666 -4,1.66666c-2,0 -3.33333,-0.66666 -3.66666,-1.66666c-0.66667,-1 -0.66667,-2.33334 -0.33334,-4.33334c2.33334,-16.33333 2.33334,-16.33333 2.33334,-16.33333c0,-0.33333 0,-1 -0.33334,-1c-0.33333,-0.33333 -0.66666,-0.66667 -1.33333,-0.66667c-10,0 -10,0 -10,0c-0.33333,0 -1,0.33334 -1.33333,0.66667c-0.66667,0 -0.66667,0.66667 -1,1c-2.33334,16.33333 -2.33334,16.33333 -2.33334,16.33333c-0.33333,2 -1,3.33334 -1.66666,4.33334c-1,1 -2.33334,1.66666 -4.33334,1.66666c-1.66666,0 -3,-0.66666 -3.66666,-1.66666c-0.33334,-1 -0.66667,-2.33334 -0.33334,-4.33334c2.33334,-16.33333 2.33334,-16.33333 2.33334,-16.33333c0.33333,-0.33333 0,-1 -0.33334,-1c-0.33333,-0.33333 -0.66666,-0.66667 -1.33333,-0.66667c-9.66667,0 -9.66667,0 -9.66667,0c-0.66666,0 -1,0.33334 -1.66666,0.33334c-0.33334,0.33333 -0.66667,0.66666 -0.66667,1.33333c-2.66667,17.33333 -2.66667,17.33333 -2.66667,17.33333c-0.66666,4.33334 0.66667,7.66667 3.33334,10c2.66666,2.33334 7.33333,3.66667 13.33333,3.66667c2.66667,0 5,-0.66667 7.33333,-1.33333c2.33334,-1 4.33334,-2.33334 5.33334,-3.33334c1,1 2.33333,2.33334 4.66666,3.33334c2,0.66666 4.33334,1.33333 6.66667,1.33333z" id="path895"/>
   <path fill="#fcfcfc" fill-rule="evenodd" d="m237.7998,41.20637c0,1 -0.33333,3 -1,6c-0.33333,3 -1,5.33334 -1,7.33334c-0.33333,1.66666 -0.33333,3.33333 -0.33333,4.66666c0,2 1.33333,3.66667 3.33333,5c2,1 4.66667,1.66667 8,1.66667c2.33334,0 4.33334,-0.33333 6.66667,-0.66667c0.66667,0 1,-0.33333 1.66667,-0.66666c0.33333,-0.33334 0.66666,-0.66667 0.66666,-1.33334c0,-0.33333 0.33334,-1.33333 0.33334,-2.33333c0.33333,-1.33333 0.33333,-2 0.33333,-2.66667c0,-0.33333 0,-1 -0.33333,-1c-0.33334,-0.33333 -1,-0.66666 -1.33334,-0.33333c-0.66666,0 -1.33333,0 -2,0c-1.66666,0 -2.66666,-0.66667 -3,-1.33333c-0.66666,-1 -0.66666,-2.66667 0,-5.33334c1.33334,-9 1.33334,-9 1.33334,-9c6,0 6,0 6,0c0.33333,0 1,-0.33333 1.33333,-0.66666c0.66667,0 1,-0.66667 1,-1c1.33333,-4.66667 1.33333,-4.66667 1.33333,-4.66667c0,-0.33333 0,-1 -0.33333,-1c-0.33333,-0.33333 -1,-0.66667 -1.33333,-0.66667c-6.66667,0 -6.66667,0 -6.66667,0c1.33333,-7.66666 1.33333,-7.66666 1.33333,-7.66666c0,-0.33334 -0.33333,-0.66667 -0.66666,-1c-0.33334,-0.33334 -0.66667,-0.33334 -1.33334,-0.33334c-8.66666,1.33334 -8.66666,1.33334 -8.66666,1.33334c-1.33334,0.33333 -2,1 -2.33334,2c-1.66666,5.66666 -1.66666,5.66666 -1.66666,5.66666c-2,0 -2,0 -2,0c-1.33334,0.33334 -2,0.66667 -2.33334,1.66667c-1,4.66667 -1,4.66667 -1,4.66667c-0.33333,0.33333 0,0.66666 0.33334,1c0.33333,0.33333 0.66666,0.66666 1.33333,0.66666l2.33333,0z" id="path897"/>
   <path fill="#fcfcfc" fill-rule="evenodd" d="m181.46647,63.53971c0.33333,-4.66667 1,-10.66667 2.33333,-17.66667c2,-9 2,-9 2,-9c0,-0.33333 0,-0.66667 -0.33333,-1.33333c-0.33333,-0.33334 -0.66667,-0.66667 -1.33333,-0.66667c-4.66667,-1.66667 -9.66667,-2.33333 -14,-2.33333c-4,0 -8,0.33333 -11,1.66666c-3.33334,1 -6,2.66667 -7.66667,4.33334c-2,1.66666 -3.33333,3.33333 -4.33333,5.66666c-1.33334,2 -2,4 -2.33334,5.66667c-0.33333,1.66667 -0.66666,3.33333 -0.66666,4.66667c0,3.33333 1.33333,6 3.66666,8c2.33334,2.33333 5,3.33333 8.66667,3.33333c1.33333,0 2.66667,-0.33333 4,-0.66667c0,0 0,0 0,0c2.33333,-1.33333 6.66667,-2.33333 11.66667,-2.33333c3.66666,0 6.66666,0.33333 9.33333,1.33333c0,-0.33333 0,-0.33333 0,-0.66666zm-13,-23.33334c1.33333,0 2.33333,0.33334 3.33333,0.66667c-1.33333,6 -1.33333,6 -1.33333,6c-0.66667,4 -2,6.66667 -3.33333,8.33333c-1.66667,1.33334 -3.33334,2.33334 -5,2.33334c-2.33334,0 -3.66667,-1.66667 -4,-5c0,-3.33334 1,-6 3,-8.66667c1.66666,-2.33333 4.33333,-3.66667 7.33333,-3.66667z" id="path899"/>
   <path fill="#fcfcfc" fill-rule="evenodd" d="m367.13314,63.87304c0,-4.66667 0.66666,-10.66667 1.66666,-17.66667c1.66667,-9 1.66667,-9 1.66667,-9c0,-0.33333 0,-0.66666 -0.33333,-1.33333c-0.33334,-0.33333 -0.66667,-0.66667 -1.33334,-0.66667c-5,-1.66666 -9.66666,-2.66666 -14.33333,-2.66666c-4,0 -7.66667,0.66666 -11,2c-3,1 -5.66667,2.33333 -7.33333,4c-1.66667,1.66666 -3.33334,3.66666 -4.33334,5.66666c-1,2.33334 -1.66666,4.33334 -2,6c-0.33333,1.66667 -0.33333,3.33334 -0.33333,4.66667c0.33333,3.33333 1.33333,6 3.66667,8c2.66666,2.33333 5.33333,3.33333 9,3.33333c1.33333,0 2.66666,-0.33333 4,-0.66666c0,0 0,0 0,0c2.33333,-1.33334 6.66666,-2.33334 11.66666,-2.33334c3.33334,0 6.66667,0.33334 9.33334,1.33334c0,-0.33334 0,-0.33334 0,-0.66667zm-14,-23.33333c1.33333,0 2.66666,0 3.33333,0.66666c-1,6 -1,6 -1,6c-0.66667,4 -1.66667,6.66667 -3,8c-1.66667,1.66667 -3.33333,2.66667 -5,2.66667c-2.33333,0 -3.66667,-1.66667 -4,-5.33333c0,-3 0.66667,-5.66667 2.33333,-8.33334c2,-2.33333 4.33334,-3.66666 7.33334,-3.66666z" id="path901"/>
   <path fill="#fcfcfc" fill-rule="evenodd" d="m228.46647,42.86739c0.66667,-3 0,-5.66666 -2,-7.66666c-1.66667,-2 -4.66667,-3 -9,-3c-1.66667,0 -3.33333,0 -4.66667,0.66666c-3,1 -7,1.66667 -11.33333,1.66667c-3.66667,0 -7,-0.33333 -9.66667,-1c-0.33333,0 -0.33333,0.33333 -0.66666,1c-0.33334,3 -0.66667,6.66667 -1.33334,11c-3,17.66667 -3,17.66667 -3,17.66667c0,0.33333 0.33334,0.66666 0.66667,1c0.33333,0.33333 0.66667,0.66666 1.33333,0.66666c9.66667,0 9.66667,0 9.66667,0c0.66667,0 1,-0.33333 1.33333,-0.66666c0.66667,-0.33334 1,-0.66667 1,-1c1.66667,-11.66667 1.66667,-11.66667 1.66667,-11.66667c0.66667,-3.66667 1.66667,-6.33333 3.33333,-8.33333c1.66667,-1.66667 3.33334,-2.66667 5,-2.66667c0.66667,0 1,0 1.66667,0.33333c0.33333,0 0.66667,0 1,0.33334c0,0.33333 0.33333,0.33333 0.66667,0.66666c0,0.33334 0.33333,0.66667 0.33333,1c0,0.33334 0,0.66667 0,1c0,0.33334 0,0.66667 0,1c0,0.66667 0,1 0,1c0,0.33334 0,0.66667 0,1.33334c-0.33333,0.33333 -0.33333,0.66666 -0.33333,0.66666c-2.33334,15.33334 -2.33334,15.33334 -2.33334,15.33334c0,0.33333 0,0.66666 0.33334,1c0.66666,0.33333 1,0.66666 1.33333,0.66666c9.66667,0 9.66667,0 9.66667,0c0.66666,0 1.33333,-0.33333 1.66666,-0.66666c0.33334,-0.33334 0.66667,-0.66667 0.66667,-1l3,-20.33334z" id="path903"/>
   <path fill="#fcfcfc" fill-rule="evenodd" d="m63.7998,7.20072c16.66667,0 31.66667,7.33334 42.33334,18.66667c-9.33334,5.66667 -15.66667,16 -15.66667,27.66667c0,0.33333 0,0.33333 0,0.33333c-5.33333,0.66667 -9.33334,3.33334 -10,7c-1,5 4.33333,12 13,16.33334c7.33333,3.66666 15,4 19,1.33333c3.33333,-2.66667 1.66667,-10 -3.33333,-16.33333c-2.66667,-3.66667 -5.66667,-6 -8.66667,-7.33334c-0.33333,0 -1,-0.33333 -1.33333,-0.33333c3.33333,-7 9.33333,-12 16.66666,-14.33333c3.33334,7.33333 5.33334,15.66666 5.33334,24.66666c0,17 -7.66667,32.33334 -19.33334,43c-2.33333,-11.33333 -9.33333,-20.33333 -18.33333,-23c1.33333,-1.66666 2,-4 2,-6c0,-6.33333 -5.33334,-11.66666 -11.66667,-11.66666c-6,0 -11.33333,5.33333 -11.33333,11.66666c0,5.33334 4,10 9,11c2,11.66667 -6,24.66667 -19,31c0.33333,0.33334 0.33333,0.33334 0.33333,0.33334c-7.66667,-1.66667 -14.33333,-4.33334 -20.66667,-8.33334c14.66667,-4.33333 26.33334,-15.33333 28,-28c0,-0.66666 0,-1.33333 0.33334,-2c0.66666,-5 -4,-11 -11.33334,-14.66666c0,0 0,0 0,0c-3.33333,-1.66667 -8,-3 -13,-3.33334c-4.66666,0 -10.66666,1.33334 -16.33333,4.33334c-5,2.66666 -9.33333,5.66666 -12,9c-1,-4.33334 -1.66667,-8.66667 -1.66667,-13.33334c0,-32 26,-57.66667 57.66667,-57.66667zm44.33334,21.33334c-8.33334,5 -14.33334,14.33333 -14.33334,25c0.66667,0 1.33334,0 2,0.33333c3.66667,-8 10.33334,-13.66666 18.33334,-16.66666c-1.66667,-3 -3.66667,-6 -6,-8.66667zm-9.33334,81.66667c-1.66666,-11 -9,-20.33334 -18.33333,-22c-1.33334,1 -3,1.66666 -4.66667,1.66666c1.66667,11.66667 -5.66667,24.33334 -17.33333,32c1.66666,0.33334 3.66666,0.33334 5.33333,0.33334c13,0 25.33334,-4.66667 35,-12zm-71,-0.66667c11,-2.33333 20.33333,-8.66667 25,-17c-5,2.66667 -12.33333,4.66667 -20.33333,5c-6.33334,0.33333 -12.33334,-0.66667 -17.33334,-2.33333c3.33334,5.66666 7.66667,10.33333 12.66667,14.33333z" id="path905"/>
   <path fill="#fcfcfc" fill-rule="evenodd" d="m114.47212,37.53971c5.66666,-2 12,-2.33334 18.66666,-1c0.33334,0.33333 1,0.33333 1.66667,0.66666c0.66667,-0.66666 1.33333,-1 2.33333,-1c2,0 3.33334,1.66667 3.33334,3.33334c0,2 -1.33334,3.66666 -3.33334,3.66666c-1.66666,0 -3.33333,-1.33333 -3.33333,-3c-0.66667,0 -1,-0.33333 -1.66667,-0.33333c-5.66666,-1.33333 -11,-1 -16,0.66667c-0.66666,-1 -1,-2 -1.66666,-3z" id="path907"/>
   <path fill="#fcfcfc" fill-rule="evenodd" d="m123.13314,21.53971c0.66666,0 1.66666,0 2.33333,0c0.66667,-1 2,-1.33334 3,-1.33334c2,0 3.66667,1.33334 3.66667,3.33334c0,2 -1.66667,3.33333 -3.66667,3.33333c-1.33333,0 -2.66667,-0.66667 -3,-2c-1,0 -1.66667,0 -2.33333,0c-5.33334,0 -10.66667,1.33333 -15,4c-0.66667,-1 -1.33334,-1.66667 -2,-2.66667c5,-3 10.66666,-4.66666 17,-4.66666z" id="path909"/>
   <path fill="#fcfcfc" fill-rule="evenodd" d="m169.7998,84.87304c0.66667,-4.33333 0.66667,-4.33333 0.66667,-4.33333c3.33333,0 3.33333,0 3.33333,0c15.33334,0 15.33334,0 15.33334,0c4.33333,0 4.33333,0 4.33333,0c-1,4 -1.66667,6.66666 -2,7.33333c-2,8.33333 -2,8.33333 -2,8.33333c2.33333,0 2.33333,0 2.33333,0c3.66667,0 3.66667,0 3.66667,0c-0.33333,1.66667 -0.66667,2.66667 -1,3.66667c0,0.66667 -0.33333,2.33333 -0.66667,4.33333c-0.33333,2 -0.66666,3.66667 -0.66666,4.66667c-0.33334,1.33333 -0.66667,2 -1,3c-0.33334,0.66667 -1,1.33333 -2,2c-0.66667,0.33333 -2,1 -4,1.33333c-1.66667,0.33334 -3.33334,0.66667 -5.33334,0.66667c0,-1.33333 -0.33333,-2 -0.66666,-2.66667c-1,-2 -1,-2 -1,-2c3.66666,0.33334 5.66666,0 6.66666,-0.66666c0.66667,-0.66667 1.33334,-1.33334 1.33334,-2c0.33333,-0.66667 0.66666,-1.66667 0.66666,-3c0.66667,-3.33334 0.66667,-3.33334 0.66667,-3.33334c0.33333,-2 0.33333,-2 0.33333,-2c-16,0 -16,0 -16,0c-4.66666,0.33334 -4.66666,0.33334 -4.66666,0.33334c0.33333,-1 0.66666,-1.66667 1,-2.66667c0.33333,-0.66667 1,-2 1.66666,-4c0.66667,-2 1,-3.66667 1.33334,-4.33333c1,-4 1,-4 1,-4c1.66666,0.33333 3.66666,0.33333 6,0.66666c-1,2.66667 -1.66667,4.33334 -1.66667,4.66667c-1.66667,5.33333 -1.66667,5.33333 -1.66667,5.33333c8,0 8,0 8,0c0.66667,-2.66666 1.33334,-4.33333 1.33334,-5c1.66666,-6.66666 1.66666,-6.66666 1.66666,-6.66666c-13.33333,0 -13.33333,0 -13.33333,0c-3.66667,0.33333 -3.66667,0.33333 -3.66667,0.33333zm-25,23.66667c2.66667,0 5.33334,-0.33334 8,-0.66667c0.66667,-5.66667 0.66667,-5.66667 0.66667,-5.66667c-3.33333,0 -3.33333,0 -3.33333,0c-4,0 -4,0 -4,0c0.66666,-3 0.66666,-3 0.66666,-3c1.33334,-10 1.33334,-10 1.33334,-10c0.33333,-3.33333 0.33333,-3.33333 0.33333,-3.33333c3.66667,0 3.66667,0 3.66667,0c3.33333,0 3.33333,0 3.33333,0c0.66667,-3.33333 0.66667,-3.33333 0.66667,-3.33333c0,-3 0,-3 0,-3c5.66666,0 5.66666,0 5.66666,0c-0.33333,3 -0.33333,3 -0.33333,3c-0.66667,3.33333 -0.66667,3.33333 -0.66667,3.33333c3.33334,0 3.33334,0 3.33334,0c4.33333,0 4.33333,0 4.33333,0c-0.66667,3.33333 -0.66667,3.33333 -0.66667,3.33333c-1.33333,10.66667 -1.33333,10.66667 -1.33333,10.66667c0,2.33333 0,2.33333 0,2.33333c-4.33333,0 -4.33333,0 -4.33333,0c-3.33334,0 -3.33334,0 -3.33334,0c-0.33333,5 -0.33333,5 -0.33333,5c2.66667,-0.33333 2.66667,-0.33333 2.66667,-0.33333c-0.33334,-0.66667 -0.33334,-1 -0.33334,-1c-0.66666,-1.66667 -0.66666,-1.66667 -0.66666,-1.66667c2,-0.33333 3.33333,-0.66666 3.66666,-1c1.33334,-0.33333 1.33334,-0.33333 1.33334,-0.33333c0.33333,1.33333 0.66666,2.33333 1,3c0.33333,0.66667 0.66666,2.33333 1.33333,5c-1.33333,0.33333 -3.33333,0.66667 -5,1.33333c0,-0.33333 -0.33333,-0.66666 -0.33333,-0.66666c0,-1.33334 0,-1.33334 0,-1.33334c-3.33334,0.66667 -6.33334,1.33334 -8.66667,1.66667c-2.66667,0.33333 -5,1 -7.33333,1.33333c-0.33334,-1.66666 -0.66667,-2.66666 -0.66667,-3c-0.66667,-1.66666 -0.66667,-1.66666 -0.66667,-1.66666zm7.33334,-10.33334c2,0 2,0 2,0c1,-8.33333 1,-8.33333 1,-8.33333c-2,0 -2,0 -2,0c-1,8.33333 -1,8.33333 -1,8.33333zm9.66666,0c1,-8.33333 1,-8.33333 1,-8.33333c-2.33333,0 -2.33333,0 -2.33333,0c-1,8.33333 -1,8.33333 -1,8.33333c2.33333,0 2.33333,0 2.33333,0zm24,10.66667c-3.66666,-0.33333 -3.66666,-0.33333 -3.66666,-0.33333c-11.66667,0 -11.66667,0 -11.66667,0c-3.33333,0.33333 -3.33333,0.33333 -3.33333,0.33333c0.66666,-4 0.66666,-4 0.66666,-4c3.33334,0 3.33334,0 3.33334,0c11.33333,0 11.33333,0 11.33333,0c4,0 4,0 4,0l-0.66667,4z" id="path911"/>
   <path fill="#fcfcfc" fill-rule="evenodd" d="m252.13314,105.87304c-1.33334,-1.66667 -2,-3 -2.66667,-4c-0.33333,-1 -1,-2.33333 -1.66667,-4c-0.66666,-2 -1,-3.66667 -1.33333,-5.66667c-0.33333,-2 -0.66667,-4.66666 -1,-8.33333c0.66667,0 1.66667,0 2.33333,0c1,0.33333 1.33334,0.33333 1.66667,0.33333c2.33333,-0.33333 2.33333,-0.33333 2.33333,-0.33333c0,1.33333 -0.33333,2.66667 0,3.66667c0,1.33333 0.33334,3.33333 0.66667,6c0.66667,2.33333 1.33333,4.33333 2.33333,6c1,2.33333 1,2.33333 1,2.33333c0.33334,-0.66667 1,-1.66667 2,-3c1,-1 2,-3.66667 3.33334,-7.33333c1.33333,-3.33334 2,-6 2.33333,-7c0.66667,-3 0.66667,-3 0.66667,-3c0.66666,0.33333 2,0.66666 3,0.66666c1,0.33334 2,0.33334 3.33333,0.66667c-0.66667,1.33333 -1,2.33333 -1.33333,3c-2,6 -2,6 -2,6c-1,2.66667 -2.33334,5 -3.66667,7.33333c-1,2.33334 -2.33333,4.33334 -3.33333,5.33334c-0.66667,1 -0.66667,1 -0.66667,1c1.33333,1.33333 2.66667,2.33333 4,3c1.66667,1 3.66667,1.66666 6,2.66666c-0.66667,0.66667 -1.33333,1.33334 -1.66667,1.66667c-0.33333,0.66667 -1.33333,1.66667 -2,2.66667c-3,-1 -5,-2.33334 -6.33333,-3c-1.33333,-1 -2.66667,-2 -4.33333,-3.33334c-2,1.66667 -4,3 -5.66667,4c-1.66667,0.66667 -4,2 -7.33333,3c-0.33334,-0.33333 -0.66667,-1 -1,-1.33333c-0.33334,-0.33333 -1.33334,-1 -2.66667,-2.33333c3,-1 5.33333,-1.66667 7.33333,-2.66667c2,-1 4,-2.33333 6.33334,-4zm-0.33334,-25.33333c2.33334,-0.33334 4.33334,-1 6,-1.33334c3,7.66667 3,7.66667 3,7.66667c-1.66666,0.33333 -3.66666,1 -6.33333,1.66667c0,-0.66667 -0.33333,-1.66667 -0.66667,-2.66667c0,-0.66667 -0.66666,-2.66667 -2,-5.33333zm-31.33333,28c3,-0.33334 5.66667,-0.66667 8.33333,-0.66667c0.66667,-5.66667 0.66667,-5.66667 0.66667,-5.66667c-3.66667,0 -3.66667,0 -3.66667,0c-4,0 -4,0 -4,0c0.66667,-3 0.66667,-3 0.66667,-3c1,-10 1,-10 1,-10c0.33333,-3.33333 0.33333,-3.33333 0.33333,-3.33333c4,0 4,0 4,0c3.66667,0 3.66667,0 3.66667,0c0.33333,-3.33333 0.33333,-3.33333 0.33333,-3.33333c0,-3 0,-3 0,-3c6,0 6,0 6,0c-0.66666,3.33333 -0.66666,3.33333 -0.66666,3.33333c-0.33334,3 -0.33334,3 -0.33334,3c3.33334,0 3.33334,0 3.33334,0c4.33333,0 4.33333,0 4.33333,0c-0.66667,3.33333 -0.66667,3.33333 -0.66667,3.33333c-1.33333,10.66667 -1.33333,10.66667 -1.33333,10.66667c0,2.33333 0,2.33333 0,2.33333c-4.33333,0 -4.33333,0 -4.33333,0c-3.33334,0 -3.33334,0 -3.33334,0c-0.66666,5 -0.66666,5 -0.66666,5c2.66666,-0.33333 2.66666,-0.33333 2.66666,-0.33333c-0.33333,-0.66667 -0.33333,-1 -0.33333,-1c-1,-2 -1,-2 -1,-2c2,-0.33333 3.66667,-0.66667 5.66667,-1.33333c0.33333,1.33333 0.66666,2.33333 1,3.33333c0.33333,1 1,2.33333 1.33333,4.33333c-1.33333,0.33334 -3.33333,1 -5.33333,2c-0.33334,-1.66666 -0.33334,-1.66666 -0.33334,-1.66666c-7,1 -12.33333,2 -16,2.66666c-0.33333,-1.66666 -0.66666,-2.66666 -0.66666,-3c-0.66667,-1.66666 -0.66667,-1.66666 -0.66667,-1.66666zm7.66667,-10.33334c1.66666,0 1.66666,0 1.66666,0c1,-8.33333 1,-8.33333 1,-8.33333c-2,0 -2,0 -2,0c-0.66666,8.33333 -0.66666,8.33333 -0.66666,8.33333zm9.33333,0c1,-8.33333 1,-8.33333 1,-8.33333c-2.33333,0 -2.33333,0 -2.33333,0c-1,8.33333 -1,8.33333 -1,8.33333l2.33333,0z" id="path913"/>
   <path fill="#fcfcfc" fill-rule="evenodd" d="m303.7998,107.53971c2,0 4.66667,-0.33334 8.66667,-0.66667c0.33333,-3.66667 0.33333,-3.66667 0.33333,-3.66667c-3.33333,0 -3.33333,0 -3.33333,0c-3,0 -3,0 -3,0c0.66667,-4 0.66667,-4 0.66667,-4c2.66666,0.33334 2.66666,0.33334 2.66666,0.33334c3.33334,0 3.33334,0 3.33334,0c0.33333,-1.33334 0.33333,-1.33334 0.33333,-1.33334c0,-2 0,-2 0,-2c6,0 6,0 6,0c-0.33333,2 -0.33333,2 -0.33333,2c-0.33334,1.33334 -0.33334,1.33334 -0.33334,1.33334c3,0 3,0 3,0c3,-0.33334 3,-0.33334 3,-0.33334c-0.33333,4 -0.33333,4 -0.33333,4c-3,0 -3,0 -3,0c-3,0 -3,0 -3,0c-0.33333,3 -0.33333,3 -0.33333,3c1.66666,0 4,-0.33333 7.66666,-1c-0.33333,1.33334 -0.66666,2.33334 -1,2.66667c-0.33333,1.66667 -0.33333,1.66667 -0.33333,1.66667c-3.66667,0.33333 -10.33333,1 -19.33333,2.66666c0,-0.66666 -0.33334,-1 -0.33334,-1.33333c0,-0.33333 -0.33333,-1.33333 -1,-3.33333zm10.33334,-15.66667c0.33333,-3.66667 0.33333,-3.66667 0.33333,-3.66667c-3,0 -3,0 -3,0c-2.66667,0 -2.66667,0 -2.66667,0c0.33334,-4 0.33334,-4 0.33334,-4c3,0.33334 3,0.33334 3,0.33334c3,0 3,0 3,0c0,-2.33334 0,-2.33334 0,-2.33334c0.33333,-2.66666 0.33333,-2.66666 0.33333,-2.66666c5.66667,0 5.66667,0 5.66667,0c-0.33334,2.66666 -0.33334,2.66666 -0.33334,2.66666c-0.33333,2.33334 -0.33333,2.33334 -0.33333,2.33334c3.33333,0 3.33333,0 3.33333,0c2.33334,-0.33334 2.33334,-0.33334 2.33334,-0.33334c-0.66667,4 -0.66667,4 -0.66667,4c-2,0 -2,0 -2,0c-3.33333,0 -3.33333,0 -3.33333,0c-0.33334,3.66667 -0.33334,3.66667 -0.33334,3.66667c3,0 3,0 3,0c3,0 3,0 3,0c-0.66666,4 -0.66666,4 -0.66666,4c-3,-0.33333 -3,-0.33333 -3,-0.33333c-12.33334,0 -12.33334,0 -12.33334,0c-3,0.33333 -3,0.33333 -3,0.33333c0.33334,-4 0.33334,-4 0.33334,-4c3,0 3,0 3,0c4,0 4,0 4,0zm-11.33334,-4c0.66667,0.66667 1.33334,1 2,1.33333c0.66667,0.33334 1.66667,0.66667 3.33334,1.33334c-4.33334,4.66666 -4.33334,4.66666 -4.33334,4.66666c-2,16.66667 -2,16.66667 -2,16.66667c-0.33333,3.66667 -0.33333,3.66667 -0.33333,3.66667c-5.66667,0 -5.66667,0 -5.66667,0c0.66667,-3.66667 0.66667,-3.66667 0.66667,-3.66667c1.33333,-10.66667 1.33333,-10.66667 1.33333,-10.66667c-1.33333,1 -2.33333,1.66667 -2.66666,2c-2.33334,1.33334 -2.33334,1.33334 -2.33334,1.33334c0,-0.66667 -0.33333,-1 -0.33333,-1.66667c0,-0.66667 -0.33333,-1.33333 -0.33333,-2c-0.66667,-1.33333 -0.66667,-1.33333 -0.66667,-1.33333c3,-1.66667 5.33333,-3.66667 7,-5.66667c1.66667,-1.66667 3,-3.66667 4.33333,-6zm2.66667,-9c0.33333,0.66667 1,1 1.33333,1.33333c0.33334,0.33334 1.33334,1 3,2c-2.33333,2 -4.66666,3.66667 -6.33333,4.66667c-2,1.33333 -4,2.66667 -6.33333,4c-1,-1.33333 -2.33334,-2.66667 -3.66667,-3.66667c1.66667,-0.66666 3,-1.33333 4.66667,-2.33333c1.33333,-0.66667 2.66666,-1.66667 3.66666,-2.66667c1.33334,-1 2.33334,-2 3.66667,-3.33333zm21.33333,11.33333c4,0.33334 4,0.33334 4,0.33334c7.33334,0 7.33334,0 7.33334,0c4,-0.33334 4,-0.33334 4,-0.33334c-0.66667,4.33334 -0.66667,4.33334 -0.66667,4.33334c-3,0 -3,0 -3,0c-1.66667,0 -1.66667,0 -1.66667,0c-2.33333,18.33333 -2.33333,18.33333 -2.33333,18.33333c0,0.66667 0,1 -0.33333,1.66667c-0.33334,0.33333 -1.33334,0.66666 -3,0.66666c-1.66667,0.33334 -3.66667,0.33334 -5.66667,0.66667c0,-0.66667 0,-1 -0.33333,-1.33333c0,-0.66667 0,-1 -0.33334,-1.66667c-1,-2 -1,-2 -1,-2c1.66667,0.33333 2.66667,0.33333 3.66667,0.33333c1,-0.33333 1.33333,-0.33333 1.66667,-0.33333c0.33333,-0.33333 0.33333,-0.66667 0.33333,-1.33333c2,-15 2,-15 2,-15c-1,0 -1,0 -1,0c-4.33333,0 -4.33333,0 -4.33333,0c0.66666,-4.33334 0.66666,-4.33334 0.66666,-4.33334zm1.33334,-9c4,0.33334 4,0.33334 4,0.33334c5.33333,0 5.33333,0 5.33333,0c4.33333,-0.33334 4.33333,-0.33334 4.33333,-0.33334c-0.33333,4.33334 -0.33333,4.33334 -0.33333,4.33334c-4.33333,-0.33334 -4.33333,-0.33334 -4.33333,-0.33334c-5.33334,0 -5.33334,0 -5.33334,0c-4.33333,0.33334 -4.33333,0.33334 -4.33333,0.33334l0.66667,-4.33334z" id="path915"/>
  </g>
 </g>
</svg>