<?xml version="1.0" standalone="no"?><!DOCTYPE svg PUBLIC "-//W3C//DTD SVG 1.1//EN" "http://www.w3.org/Graphics/SVG/1.1/DTD/svg11.dtd"><svg t="1600494211023" class="icon" viewBox="0 0 1024 1024" version="1.1" xmlns="http://www.w3.org/2000/svg" p-id="3479" xmlns:xlink="http://www.w3.org/1999/xlink" width="16" height="16"><defs><style type="text/css"></style></defs><path d="M179.2 550.4c-96 96-96 256 0 352 44.8 44.8 108.8 76.8 179.2 76.8 64 0 128-25.6 179.2-70.4l6.4-6.4 358.4-358.4-38.4-38.4-358.4 358.4c-38.4 38.4-89.6 57.6-140.8 57.6-51.2 0-102.4-19.2-140.8-57.6-38.4-38.4-57.6-89.6-57.6-140.8 0-51.2 19.2-102.4 57.6-140.8l416-416c25.6-25.6 57.6-38.4 96-38.4s70.4 12.8 96 38.4c25.6 25.6 38.4 57.6 38.4 96 0 32-12.8 64-38.4 89.6 0 0 0 6.4-6.4 6.4l-403.2 403.2c-25.6 25.6-70.4 25.6-102.4 0-12.8-12.8-19.2-32-19.2-51.2 0-19.2 6.4-38.4 19.2-51.2l262.4-262.4-32-32-262.4 262.4c-44.8 44.8-44.8 121.6 0 166.4 25.6 25.6 51.2 32 83.2 32s64-12.8 83.2-32l6.4-6.4 396.8-396.8c38.4-38.4 57.6-83.2 57.6-134.4s-19.2-96-57.6-134.4c-38.4-38.4-83.2-57.6-134.4-57.6s-96 19.2-134.4 57.6l-409.6 428.8z" p-id="3480"></path></svg>