<?xml version="1.0" standalone="no"?><!DOCTYPE svg PUBLIC "-//W3C//DTD SVG 1.1//EN" "http://www.w3.org/Graphics/SVG/1.1/DTD/svg11.dtd"><svg t="1600494125368" class="icon" viewBox="0 0 1024 1024" version="1.1" xmlns="http://www.w3.org/2000/svg" p-id="3327" xmlns:xlink="http://www.w3.org/1999/xlink" width="16" height="16"><defs><style type="text/css"></style></defs><path d="M738.235733 14.199467l271.5648 273.271466v635.016534a82.602667 82.602667 0 0 1-82.602666 82.602666H225.416533a82.602667 82.602667 0 0 1-82.193066-74.1376l-0.4096-8.465066V819.2H60.2112a41.301333 41.301333 0 0 1-41.233067-41.233067v-350.890666c0-22.869333 18.432-41.301333 41.301334-41.301334h82.5344V96.802133c0-45.533867 37.000533-82.602667 82.602666-82.602666h512.8192z m-25.8048 61.986133H225.348267A20.6848 20.6848 0 0 0 204.8 96.802133V385.706667h619.246933c22.801067 0 41.301333 18.432 41.301334 41.301333v350.890667c0 22.801067-18.432 41.233067-41.233067 41.301333H204.8v103.2192c0 11.332267 9.216 20.548267 20.548267 20.616533h701.8496a20.616533 20.616533 0 0 0 20.616533-20.616533V313.002667l-9.762133-9.762134h-122.402134a94.890667 94.890667 0 0 1-94.4128-85.8112l-0.477866-9.079466V84.514133l-8.328534-8.328533zM432.469333 475.136c-37.546667 0-66.901333 11.946667-88.064 36.522667-20.48 23.210667-30.378667 53.248-30.378666 90.453333 0 36.864 9.898667 66.901333 30.378666 90.112 21.162667 23.893333 50.517333 36.181333 88.064 36.181333 37.205333 0 66.56-11.946667 88.064-35.84 20.48-22.869333 30.72-52.906667 30.72-90.453333 0-37.546667-10.24-67.925333-30.72-90.794667-21.504-24.234667-50.858667-36.181333-88.064-36.181333z m248.490667 0c-38.912 0-68.608 12.629333-89.088 38.570667-18.090667 22.528-26.965333 52.224-26.965333 88.405333 0 36.864 8.533333 66.218667 25.941333 88.064 19.797333 25.258667 50.176 38.229333 90.794667 38.229333 26.282667 0 48.810667-7.509333 67.584-22.528 20.138667-16.042667 32.768-38.229333 38.229333-66.901333h-38.912c-4.778667 18.432-12.970667 32.426667-24.576 41.642667-10.922667 8.192-25.258667 12.629333-42.666667 12.629333-26.624 0-46.421333-8.533333-59.050666-24.917333-11.605333-15.36-17.408-37.546667-17.408-66.218667 0-27.989333 5.802667-49.834667 17.749333-65.536 12.970667-17.749333 32.085333-26.282667 57.685333-26.282667 17.066667 0 31.061333 3.413333 41.984 10.922667 11.264 7.509333 18.773333 19.114667 22.869334 35.157333h38.912c-3.754667-24.576-14.336-44.373333-32.085334-58.709333-18.432-15.018667-42.325333-22.528-70.997333-22.528z m-499.712 4.778667H92.16v243.712h89.088c39.594667 0 69.290667-10.922667 89.770667-32.768 19.456-20.821333 29.354667-50.517333 29.354666-89.088 0-38.912-9.898667-68.608-29.354666-89.088-20.48-21.845333-50.176-32.768-89.770667-32.768z m251.221333 30.378666c25.258667 0 44.714667 7.850667 58.368 24.234667 13.312 16.384 20.138667 38.912 20.138667 67.584 0 28.672-6.826667 50.858667-20.138667 66.901333-13.653333 16.042667-33.109333 24.234667-58.368 24.234667s-45.056-8.533333-58.709333-25.258667c-13.312-16.384-19.797333-38.229333-19.797333-65.877333 0-27.989333 6.485333-49.834667 19.797333-66.218667 13.994667-17.066667 33.450667-25.6 58.709333-25.6z m-258.730666 3.754667c30.378667 0 52.565333 6.826667 66.56 20.821333 13.653333 13.653333 20.48 36.181333 20.48 66.901334 0 30.037333-6.826667 52.224-20.48 66.56-13.994667 13.994667-36.181333 21.162667-66.56 21.162666h-41.642667V514.048h41.642667z" p-id="3328"></path></svg>