<?xml version="1.0" standalone="no"?><!DOCTYPE svg PUBLIC "-//W3C//DTD SVG 1.1//EN" "http://www.w3.org/Graphics/SVG/1.1/DTD/svg11.dtd"><svg t="1600494069062" class="icon" viewBox="0 0 1024 1024" version="1.1" xmlns="http://www.w3.org/2000/svg" p-id="1801" xmlns:xlink="http://www.w3.org/1999/xlink" width="16" height="16"><defs><style type="text/css"></style></defs><path d="M751.02435555 20.48H287.90328889a81.92 81.92 0 0 0-81.92 81.92v307.2h61.44V143.36a61.44 61.44 0 0 1 61.44-61.44H666.73777778v256.04551111h235.56551111v542.67448889a61.44 61.44 0 0 1-61.44 61.44H328.86328889a61.44 61.44 0 0 1-61.44-61.44v-20.48h-61.44V921.6a81.92 81.92 0 0 0 81.92 81.92h593.92a81.92 81.92 0 0 0 81.92-81.92V294.0928c0-29.12711111 0-29.12711111-212.71893334-273.6128z m-22.84657777 255.95448889V86.8352l159.28888889 189.59928889z" p-id="1802" fill="#707070"></path><path d="M42.05226667 491.52v327.68h737.28v-327.68zM299.09902222 603.02222222h-12.92515555q-47.24053333 3.09475555-50.97244445 53.06595556v116.3264h-34.22435555v-200.24888889h31.9488v33.40515556h0.72817778Q256.50062222 566.61333333 289.90577778 566.61333333a29.21813333 29.21813333 0 0 1 7.28177777 1.00124445l1.91146667 0.54613333z m202.52444445 169.30133333a27.94382222 27.94382222 0 0 0-5.18826667 1.09226667 50.33528889 50.33528889 0 0 1-13.83537778 2.27555556Q448.28444445 775.96444445 447.64728889 745.83608889a92.11448889 92.11448889 0 0 1-72.81777778 31.40266666q-58.89137778-3.18577778-62.16817778-56.43377777 1.09226667-55.25048889 60.71182222-63.16942223l55.52355556-6.73564444c11.65084445-0.72817778 17.47626667-8.55608889 17.38524444-23.57475556q0-32.58595555-47.1495111-32.67697777c-27.30666667 0-42.68942222 12.65208889-45.51111112 38.68444444h-31.22062222q2.36657778-66.71928889 82.83022222-66.71928889 72.36266667 3.45884445 73.63697778 56.06968889v115.5072a10.10346667 10.10346667 0 0 0 11.37777778 11.37777778 61.80408889 61.80408889 0 0 0 11.37777778-1.45635555z m136.53333333-169.30133333h-12.83413333q-47.24053333 3.09475555-50.97244445 53.06595556v116.3264h-34.22435555v-200.24888889h31.9488v33.40515556h0.72817778Q595.5584 566.61333333 629.05457778 566.61333333a29.21813333 29.21813333 0 0 1 7.28177777 1.00124445l1.91146667 0.54613333z" p-id="1803" fill="#707070"></path><path d="M347.52284445 715.34364445c0 23.30168889 11.83288889 34.95253333 35.6807111 34.95253333 38.04728889-2.91271111 58.80035555-18.65955555 62.16817778-47.05848889v-32.67697778c-4.18702222 4.55111111-22.66453333 9.10222222-55.25048888 13.01617778-28.672 3.00373333-42.87146667 13.65333333-42.5984 31.76675556z" p-id="1804" fill="#707070"></path></svg>