<?xml version="1.0" standalone="no"?><!DOCTYPE svg PUBLIC "-//W3C//DTD SVG 1.1//EN" "http://www.w3.org/Graphics/SVG/1.1/DTD/svg11.dtd"><svg t="1600494092302" class="icon" viewBox="0 0 1029 1024" version="1.1" xmlns="http://www.w3.org/2000/svg" p-id="2588" xmlns:xlink="http://www.w3.org/1999/xlink" width="16.078125" height="16"><defs><style type="text/css"></style></defs><path d="M244.36224 0h481.28l274.76992 274.77504v669.00992c0 43.83232-34.9696 79.33952-78.592 80.19968l-1.61792 0.01536h-675.84c-43.83232 0-79.33952-34.9696-80.19968-78.592l-0.01536-1.62304V510.29504h-71.68A61.17376 61.17376 0 0 1 31.04768 450.42176l-0.02048-1.56672V271.36c0-33.60768 26.4704-60.60032 59.86816-61.41952L92.4672 209.92h71.68V80.21504C164.1472 36.38272 199.1168 0.8704 242.7392 0.01536L244.36224 0z m438.60992 59.73504H244.36224c-11.58656 0-19.96288 9.6256-20.45952 19.54816l-0.02048 0.93184V209.92h363.52c33.60768 0 60.5952 26.4704 61.41952 59.86816l0.02048 1.57184v177.49504c0 33.60768-26.4704 60.5952-59.87328 61.41952l-1.56672 0.02048h-363.52v433.48992c0 11.58656 9.6256 19.96288 19.54816 20.45952l0.93184 0.02048h675.84c9.92768 0 19.85536-9.6256 20.44928-19.54816l0.03072-0.93184V317.44H763.1872c-43.83232 0-79.33952-34.9696-80.19968-78.592l-0.01536-1.62304V59.73504z m71.68 616.10496c20.0704 0 36.864 16.38912 37.5296 36.32128l0.02048 1.2288v20.48h18.76992c13.30688 0 24.9856 11.3408 25.57952 26.12736l0.02048 1.1776v39.24992c0 13.29664-11.32544 24.97024-24.5248 25.57952l-1.0752 0.02048h-18.76992v20.48c0 20.0704-16.39424 36.864-36.3264 37.5296l-1.22368 0.02048h-95.56992c-14.8992 0-28.1856-8.02816-33.64864-20.96128l-0.4864-1.2288h-54.61504v-80.20992H490.12224v80.20992h-81.92v-80.20992H327.9872v-81.92h81.92v80.20992h80.21504v-80.20992h81.92v80.20992h51.2v-66.56c0-20.0704 16.384-36.864 36.32128-37.52448l1.22368-0.02048h93.86496z m56.32 80.21504h-81.92c-1.55136 0-3.10272 1.408-3.36896 2.94912l-0.04096 0.4608V798.72c0 1.55136 1.408 3.10272 2.94912 3.37408l0.4608 0.04096h81.92c1.55136 0 3.10272-1.41312 3.37408-2.94912l0.04096-0.46592v-39.25504c0-1.70496-1.70496-3.40992-3.41504-3.40992zM274.11456 263.68H127.30368v25.71264h107.8272l-116.1216 147.9168v23.77728h161.7408v-25.71264H158.26944l115.84512-147.64032V263.68z m73.55392 0h-29.85984v197.40672h29.85984V263.68z m131.33824 0H397.16864v197.40672h30.13632V384.22528h51.1488c47.27808 0 71.05536-20.18304 71.05536-60.54912 0-40.0896-23.5008-59.99616-70.5024-59.99616z m-2.48832 25.71264c13.98784 0 24.448 2.51904 31.3856 7.55712l0.96256 0.73728c6.912 4.97664 10.50624 13.824 10.50624 25.98912 0 12.16512-3.59424 21.01248-10.22976 26.54208-6.912 5.5296-17.69472 8.2944-32.62464 8.2944h-49.21344v-69.12h49.21344zM742.7072 102.4v134.82496c0 11.58656 9.6256 19.96288 19.54816 20.45952l0.93184 0.02048h134.82496L742.7072 102.4z" p-id="2589"></path></svg>